<?xml version="1.0" encoding="utf-8"?>
<!-- Generator: Adobe Illustrator 15.0.0, SVG Export Plug-In . SVG Version: 6.00 Build 0)  -->
<!DOCTYPE svg PUBLIC "-//W3C//DTD SVG 1.1//EN" "http://www.w3.org/Graphics/SVG/1.1/DTD/svg11.dtd">
<svg version="1.1" id="Calque_1" xmlns="http://www.w3.org/2000/svg" xmlns:xlink="http://www.w3.org/1999/xlink" x="0px" y="0px"
	 width="191.943px" height="151.238px" viewBox="0 0 191.943 151.238" enable-background="new 0 0 191.943 151.238"
	 xml:space="preserve">
<g id="Calque_1_1_" display="none">
	
		<image display="inline" overflow="visible" enable-background="new    " width="170" height="128" xlink:href="DFA03A06.jpeg"  transform="matrix(1 0 0 1 5.4031 17.4016)">
	</image>
</g>
<g id="Calque_2">
	<path fill="#FFFFFF" stroke="#000000" stroke-miterlimit="10" d="M159.019,47.089c0,0-0.898-7.481,11.969-5.087l-6.582-3.591
		l6.881-2.095l-10.473,0.599l0.897-4.488l-3.592,5.686l-2.992-5.983c0,0,3.593,9.274-0.299,13.166L159.019,47.089z"/>
	<path fill="#FFFFFF" stroke="#000000" stroke-miterlimit="10" d="M167.97,65.13c0,0,7.479,8.677,4.188,10.173
		s-10.473-9.875-10.473-9.875s0.897,8.079,7.182,11.371c0,0-0.3,5.087-14.363-7.181c0,0-5.387-4.488-23.04,0l-23.339,16.457
		c0,0,15.56-18.553,1.795-13.765l-50.334,9.721c0,0-35.18,7.786-40.929,33.367c0,0-6.583,16.457,6.583,21.544
		c0,0-5.686,3.592-11.071-5.685c0,0-4.188,4.788-0.598,12.867c0,0-12.867-7.182-3.591-38.899
		c9.275-31.718,14.662-32.914,44.883-58.049c0,0,9.874-5.386,0.898-16.458c0,0-17.654-15.858,4.787-8.977
		c0,0,11.97,2.692,22.144,9.275c0,0,29.024-5.387,47.875,0.299C130.567,31.318,172.458,40.295,167.97,65.13z"/>
	
		<text transform="matrix(0.7704 0.6377 -0.6377 0.7703 157.4802 25.218)" stroke="#FFFFFF" stroke-miterlimit="10" font-family="'MyriadPro-Regular'" font-size="11.9996">HTML</text>
</g>
</svg>
