<?xml version="1.0" encoding="utf-8"?>
<!-- Generator: Adobe Illustrator 15.0.0, SVG Export Plug-In . SVG Version: 6.00 Build 0)  -->
<!DOCTYPE svg PUBLIC "-//W3C//DTD SVG 1.1//EN" "http://www.w3.org/Graphics/SVG/1.1/DTD/svg11.dtd">
<svg version="1.1" id="Calque_1" xmlns="http://www.w3.org/2000/svg" xmlns:xlink="http://www.w3.org/1999/xlink" x="0px" y="0px"
	 width="93px" height="93px" viewBox="0 0 93 93" enable-background="new 0 0 93 93" xml:space="preserve">
<g>
	<g>
		<path fill-rule="evenodd" clip-rule="evenodd" fill="#E0767B" d="M12.88,36c1.875,0,4.005,0,6.24,0c2.133,0,4.79-0.532,6.36,0
			c0.004,0.001-0.028,0.31-0.12,0.24C21.48,35.88,16.76,36.36,12.88,36z"/>
		<path fill-rule="evenodd" clip-rule="evenodd" fill="#EC1323" d="M62.68,51.36c-0.087,0.272-0.36,0.358-0.6,0.479
			c0.021-0.102-0.047-0.113-0.12-0.12C62.161,51.561,62.216,51.256,62.68,51.36z"/>
		<path fill-rule="evenodd" clip-rule="evenodd" fill="#F8D1D3" d="M20.68,52.799c4.24-0.278,9-0.039,13.44-0.119
			C29.879,52.96,25.12,52.72,20.68,52.799z"/>
		<path fill-rule="evenodd" clip-rule="evenodd" fill="#F8D1D3" d="M19.24,60.12c0,0.68,0,1.36,0,2.04
			C19.041,61.756,19.041,60.523,19.24,60.12z"/>
		<path fill-rule="evenodd" clip-rule="evenodd" fill="#EC1323" d="M37.48,61.08c-0.121,0.159-0.114,0.446-0.36,0.479
			c-0.04,0-0.08,0-0.12,0C37.074,61.283,37.238,60.836,37.48,61.08z"/>
		<path fill-rule="evenodd" clip-rule="evenodd" fill="#E0767B" d="M14.68,61.2c0.04,0,0.08,0,0.12,0c0,0.72,0,1.439,0,2.16
			c-0.04,0-0.08,0-0.12,0C14.68,62.64,14.68,61.92,14.68,61.2z"/>
		<path fill-rule="evenodd" clip-rule="evenodd" fill="#E0767B" d="M72.28,85.56c-12.921,0.2-26.68,0.2-39.6,0
			C45.88,85.56,59.08,85.56,72.28,85.56z"/>
		<path fill-rule="evenodd" clip-rule="evenodd" fill="#F8D1D3" d="M10.36,40.32c3.527-0.713,8.712,0.232,12.24-0.48
			c-0.522,0.608-3.786,0.36-5.88,0.36C14.236,40.2,11.766,40.112,10.36,40.32z"/>
		<path fill-rule="evenodd" clip-rule="evenodd" fill="#EC1323" d="M9.64,41.52c-0.174,0.226-0.177,0.624-0.48,0.72
			C9.101,41.78,9.325,41.605,9.64,41.52z"/>
		<path fill-rule="evenodd" clip-rule="evenodd" fill="#EC1323" d="M23.8,81.36c0.394,0.206,0.567,0.633,0.96,0.84
			c0.47,0.57,0.99,1.09,1.56,1.56c0.023,0.098,0.121,0.12,0.121,0.24C25.46,83.221,24.58,82.34,23.8,81.36z"/>
		<path fill-rule="evenodd" clip-rule="evenodd" fill="#EC1323" d="M28.36,84.24c0,0.16,0,0.319,0,0.479
			c-0.325,0.211-1.037,0.781-0.84,0.24c0.102-0.022,0.113,0.047,0.12,0.12C28.007,84.927,27.993,84.393,28.36,84.24z"/>
		<path fill-rule="evenodd" clip-rule="evenodd" fill="#FE000B" d="M1.12,0c30.321,0,60.639,0,90.96,0c0,31.399,0,62.802,0,94.2
			c-30.359,0-60.721,0-91.08,0C1,62.921,1,31.638,1,0.36C0.99,0.189,0.98,0.02,1.12,0z M28.36,84.24
			c11.391-18.469,22.856-36.119,34.2-54.6c-0.802-1.158-1.407-2.513-2.52-3.36C53.378,36.699,46.619,47.018,39.88,57.36
			c-0.504,0.161-0.184,0.401-0.48,0.72c-0.548,1.092-1.318,1.962-1.92,3c-0.243-0.244-0.407,0.203-0.48,0.479c0.04,0,0.08,0,0.12,0
			c-3.049,4.911-6.266,9.654-9.36,14.521c-0.218,0.262-0.542,0.417-0.6,0.84c-0.189,0.092-0.18,0.381-0.48,0.359
			c-0.052-0.268-0.212-0.427-0.48-0.479c-0.459-0.66-1.02-1.221-1.68-1.68c-2.428-2.972-4.51-6.29-5.04-11.16
			c-0.029-0.491,0.117-1.157-0.24-1.32c0-0.159,0-0.319,0-0.479c0-0.68,0-1.36,0-2.04c0-0.16,0-0.32,0-0.48
			c0.435-0.085,0.165-0.874,0.24-1.319c0.032-2.208,0.833-3.647,1.2-5.521c4.44-0.079,9.199,0.161,13.44-0.119
			c0.812-1.108,1.58-2.259,2.159-3.6c0.167-0.012,0.469-0.469,0.241-0.48c-2.622-0.214-6.991-0.119-10.201-0.119
			c-1.156,0-4.172,0.365-3.479-0.6c0.63-1.171,1.294-2.306,1.92-3.48c0.04,0,0.08,0,0.12,0c4.761,0,9.52,0,14.28,0
			c0-0.12,0-0.24,0-0.36c0.726-1.234,1.532-2.389,2.16-3.72c0.051-0.413-2.195-0.24-3.24-0.24c-3.389,0-7.146,0-10.2,0
			c0.849-1.112,1.826-2.095,2.76-3.12c0.12,0,0.143-0.097,0.239-0.12c0.139,0.17,0.485-0.468,0.721-0.6c1.721,0,3.771,0,6.24,0
			c1.824,0,5.684,0.324,6.12-0.48c0.626-1.373,1.546-2.455,2.16-3.84c-2.25-0.588-7.001-0.008-9-0.24
			c0.112-0.328,0.575-0.306,0.6-0.72c11.234-9.167,23.599-17.2,37.919-23.28C76.148,5.909,77.21,4.69,77.8,3
			c0.403,0.123,0.187-0.373,0.239-0.6c-0.212,0.027-0.6-0.121-0.479,0.24C59.445,10.166,43.267,19.626,29.68,31.68
			c-3.816,0.166-11.167-0.31-14.52,0.24c-0.861,1.18-1.425,2.655-2.28,3.84c-0.14,0.021-0.13,0.19-0.12,0.36
			c3.88,0.36,8.6-0.12,12.48,0.24c-0.875,1.166-1.91,2.17-2.64,3.48c-3.528,0.712-8.713-0.233-12.24,0.48
			c-0.271,0.368-0.539,0.741-0.72,1.2c-0.315,0.085-0.54,0.26-0.48,0.72c-0.207,0.553-0.559,0.961-0.72,1.56
			c-0.277-0.037-0.133,0.347-0.36,0.36c-0.031-0.014-0.091,0.018-0.12,0c1.089,0.673,3.655,0.24,5.64,0.24
			c2.221,0,4.345-0.095,5.88,0.12c-0.707,1.174-1.286,2.475-1.92,3.721c-3.486,0.634-8.315-0.075-12,0.359c0,0.04,0,0.08,0,0.12
			c-0.798,1.243-1.54,2.54-2.16,3.96c3.461,0.355,8.799-0.115,12.48,0.24c-0.346,1.214-0.595,2.525-0.72,3.96
			c-0.505,0.015-0.119,0.921-0.24,1.32c0,0.399,0,0.8,0,1.2c-0.48,0.199-0.136,1.224-0.24,1.8c0,0.72,0,1.439,0,2.16
			c0.091,0.509-0.221,1.421,0.24,1.56c0.994,7.446,5.007,11.873,8.88,16.44c0.78,0.979,1.66,1.86,2.64,2.64
			c0.433,0.248,0.647,0.713,1.08,0.96c-0.197,0.541,0.515-0.029,0.84-0.24C28.36,84.56,28.36,84.4,28.36,84.24z M66.76,53.76
			c2.186-1.774,4.352-3.568,6.601-5.279c-2.662-4.378-5.671-8.41-8.521-12.601c-1.307,0.693-2.428,1.573-3.479,2.52
			c0.844,1.276,1.765,2.475,2.52,3.84c-0.06,0.459,0.165,0.635,0.48,0.72c0.979,1.58,2.111,3.008,3,4.68
			c-0.571,0.348-1.121,0.719-1.561,1.199c-0.298-0.238-0.472,0.417-0.84,0.48c0.073,0.007,0.143,0.018,0.12,0.12
			c-0.86,0.579-1.514,1.366-2.4,1.92c-0.464-0.104-0.519,0.2-0.72,0.359c0.073,0.007,0.142,0.019,0.12,0.12
			c-0.636,0.845-1.795,1.165-2.28,2.16c0.094,0.027,0.237,0.003,0.24,0.12c0.228,0.612,0.686,0.994,1.2,1.32
			c0.047,0.512,0.707,0.412,0.72,0.96c-0.014,0.413,0.494,0.306,0.48,0.72c0.459,0.06,0.635-0.165,0.72-0.48
			c0.806-0.634,1.629-1.251,2.399-1.92C66.01,54.45,66.578,54.298,66.76,53.76z M58.84,42.48c-0.886,0.234-1.446,0.793-1.68,1.68
			c-0.392,0.052-0.392,1.628,0,1.679c0.434,2.335,4.977,2.19,4.92-0.479c0.154-0.123,0.309-1.261-0.12-1.2
			c-0.15-0.969-0.799-1.44-1.68-1.68C60.244,42.141,58.859,42.056,58.84,42.48z M73.6,62.88c0.031,0.015,0.092-0.018,0.12,0
			c-0.936-0.579-3.811-0.24-5.399-0.24c-5.717,0-11.936-0.096-16.801,0.12c0.001,0.121-0.097,0.143-0.119,0.24
			c-0.925,1.235-1.784,2.536-2.641,3.84c-0.214-0.035-0.007,0.466,0.24,0.36c6.224-0.168,15.645,0.32,21.72-0.239
			C71.726,65.646,72.721,64.321,73.6,62.88z M35.319,81.24c-0.94,1.379-1.85,2.789-2.639,4.319c12.92,0.2,26.679,0.2,39.6,0
			c1.301-1.259,2.243-2.876,3.359-4.319c0.151-0.05,0.245-0.155,0.24-0.36c-0.24,0-0.479,0-0.72,0c-6.68,0-13.36,0-20.04,0
			c-6.562,0.157-13.701-0.315-19.801,0.24C35.319,81.16,35.319,81.2,35.319,81.24z"/>
		<path fill-rule="evenodd" clip-rule="evenodd" fill="#EC1323" d="M39.88,57.36c-0.044,0.355-0.208,0.592-0.48,0.72
			C39.697,57.762,39.376,57.521,39.88,57.36z"/>
		<path fill-rule="evenodd" clip-rule="evenodd" fill="#B02B31" d="M27.16,76.92c0.057-0.423,0.382-0.578,0.6-0.84
			c-0.046,0.394-0.351,0.529-0.48,0.84C27.24,76.92,27.2,76.92,27.16,76.92z"/>
		<path fill-rule="evenodd" clip-rule="evenodd" fill="#EC1323" d="M26.2,76.8c-0.61-0.51-1.17-1.069-1.68-1.68
			C25.181,75.579,25.741,76.14,26.2,76.8z"/>
		<path fill-rule="evenodd" clip-rule="evenodd" fill="#EC1323" d="M30.879,36.84c0.124-0.315,0.476-0.404,0.601-0.72
			c4-0.08,8.32,0.16,12.12-0.12c0.171-0.029,0.203-0.198,0.36-0.24c-0.436,0.805-4.296,0.48-6.12,0.48c-2.468,0-4.519,0-6.24,0
			C31.364,36.372,31.019,37.01,30.879,36.84z"/>
		<path fill-rule="evenodd" clip-rule="evenodd" fill="#EC1323" d="M46.12,31.92c-3.16,0-6.32,0-9.48,0
			c0.195-0.484,0.743-0.617,1.08-0.96c-0.025,0.414-0.488,0.393-0.6,0.72C39.119,31.912,43.87,31.332,46.12,31.92z"/>
		<path fill-rule="evenodd" clip-rule="evenodd" fill="#FFFFFF" d="M77.8,3c-0.59,1.69-1.651,2.909-2.16,4.68
			c-14.32,6.08-26.686,14.113-37.919,23.28c-0.337,0.343-0.885,0.476-1.08,0.96c3.16,0,6.32,0,9.48,0
			c-0.614,1.385-1.534,2.467-2.16,3.84c-0.157,0.042-0.188,0.211-0.36,0.24c-1.753,0-3.854,0-6,0c-2.787,0-6.064-0.573-6.96,0.96
			c-0.934,1.025-1.912,2.008-2.76,3.12c0,0.04,0,0.08,0,0.12c4.44,0.08,9.2-0.16,13.44,0.12c-0.628,1.332-1.435,2.486-2.16,3.72
			c-0.103-0.021-0.114,0.046-0.12,0.12c-2.253,0-4.657,0-7.08,0c-2.4,0-5.501-0.193-7.201,0.24c-0.626,1.174-1.29,2.309-1.92,3.48
			c-0.12,0.13-0.516,0.588-0.24,0.719c4.32,0.28,9.159,0.04,13.679,0.12c0,0.12,0,0.24,0,0.36c-0.579,1.341-1.348,2.491-2.159,3.6
			c-4.44,0.08-9.2-0.159-13.44,0.119c-0.367,1.874-1.168,3.313-1.2,5.521c-0.228,0.292-0.082,0.958-0.24,1.319c0,0.16,0,0.32,0,0.48
			c-0.2,0.403-0.2,1.636,0,2.04c0,0.16,0,0.32,0,0.479c0.158,0.362,0.012,1.028,0.24,1.32c0.53,4.87,2.612,8.188,5.04,11.16
			c0.51,0.61,1.07,1.17,1.68,1.68c0.268,0.053,0.428,0.212,0.48,0.479c0.3,0.021,0.291-0.268,0.48-0.359c0.04,0,0.08,0,0.12,0
			c0.129-0.311,0.434-0.446,0.48-0.84c3.095-4.866,6.311-9.609,9.36-14.521c0.247-0.033,0.239-0.32,0.36-0.479
			c0.602-1.038,1.372-1.908,1.92-3c0.272-0.128,0.436-0.364,0.48-0.72c6.738-10.342,13.498-20.662,20.16-31.081
			c1.112,0.848,1.718,2.203,2.52,3.36c-11.344,18.481-22.809,36.131-34.2,54.6c-0.367,0.152-0.353,0.687-0.72,0.84
			c-0.007-0.073-0.018-0.143-0.12-0.12c-0.433-0.247-0.647-0.712-1.08-0.96c0-0.12-0.097-0.143-0.121-0.24
			c-0.469-0.57-0.989-1.09-1.56-1.56c-0.393-0.207-0.566-0.634-0.96-0.84c-3.873-4.567-7.886-8.994-8.88-16.44c0-0.12,0-0.24,0-0.36
			c0-1.6,0-3.199,0-4.8c0-0.12,0-0.24,0-0.359c0-0.4,0-0.801,0-1.2c0.273-0.247,0.004-1.036,0.24-1.32
			c0.125-1.435,0.374-2.746,0.72-3.96c0.103,0.022,0.113-0.047,0.12-0.121c-3.96-0.278-8.44-0.039-12.6-0.119
			c0.62-1.42,1.362-2.717,2.16-3.96c3.808-0.487,8.306,0.654,11.88,0c0.114-0.021,0.096-0.133,0.12-0.239c0-0.08,0-0.16,0-0.24
			c0.634-1.246,1.213-2.547,1.92-3.721c0.151-0.029,0.121-0.239,0-0.24C16,44,12,44.239,8.32,44.16
			c-0.034-0.194,0.114-0.207,0.12-0.36c0.161-0.599,0.513-1.007,0.72-1.56c0.303-0.096,0.306-0.494,0.48-0.72
			c0.181-0.459,0.448-0.832,0.72-1.2c1.406-0.208,3.876-0.12,6.36-0.12c2.094,0,5.358,0.248,5.88-0.36
			c0.73-1.31,1.766-2.314,2.64-3.48c0.102,0.022,0.113-0.047,0.12-0.12c0.092,0.07,0.125-0.239,0.12-0.24
			c-1.57-0.532-4.227,0-6.36,0c-2.235,0-4.366,0-6.24,0c0-0.08,0-0.16,0-0.24c0.855-1.185,1.419-2.66,2.28-3.84
			c4.763-0.157,10.156,0.316,14.52-0.24C43.267,19.626,59.445,10.166,77.56,2.64c0.098-0.083,0.329-0.187,0.36,0
			C77.954,2.834,77.807,2.847,77.8,3z"/>
		<path fill-rule="evenodd" clip-rule="evenodd" fill="#E0767B" d="M30.64,36.96C31.536,35.427,34.813,36,37.6,36
			c2.146,0,4.247,0,6,0c-3.8,0.28-8.12,0.04-12.12,0.12c-0.125,0.316-0.477,0.404-0.601,0.72C30.783,36.863,30.76,36.96,30.64,36.96
			z"/>
		<path fill-rule="evenodd" clip-rule="evenodd" fill="#F8D1D3" d="M24.76,82.2c0.57,0.47,1.09,0.989,1.56,1.56
			C25.75,83.29,25.23,82.771,24.76,82.2z"/>
		<path fill-rule="evenodd" clip-rule="evenodd" fill="#F8D1D3" d="M8.08,44.16c0.227-0.014,0.083-0.397,0.36-0.36
			c-0.006,0.153-0.154,0.166-0.12,0.36C12,44.239,16,44,19.48,44.28C15.72,44.2,11.64,44.439,8.08,44.16z"/>
		<path fill-rule="evenodd" clip-rule="evenodd" fill="#EC1323" d="M63.88,42.24c0.208,0.191,0.352,0.448,0.48,0.72
			C64.045,42.875,63.82,42.699,63.88,42.24z"/>
		<path fill-rule="evenodd" clip-rule="evenodd" fill="#EC1323" d="M65.8,48.84c-0.255,0.185-0.446,0.434-0.72,0.601
			c0.022-0.103-0.047-0.113-0.12-0.12C65.328,49.257,65.502,48.602,65.8,48.84z"/>
		<path fill-rule="evenodd" clip-rule="evenodd" fill="#EC1323" d="M60.04,54.12c0.48,0.359,0.785,0.895,1.2,1.32
			C60.726,55.114,60.268,54.732,60.04,54.12z"/>
		<path fill-rule="evenodd" clip-rule="evenodd" fill="#EC1323" d="M61.96,56.4c0.251,0.148,0.451,0.349,0.6,0.6
			c0.377,0.057,0.317-0.323,0.601-0.36c-0.085,0.315-0.261,0.54-0.72,0.48C62.454,56.706,61.946,56.813,61.96,56.4z"/>
		<path fill-rule="evenodd" clip-rule="evenodd" fill="#EC1323" d="M65.56,54.72c0.277-0.442,0.871-0.569,1.2-0.96
			C66.578,54.298,66.01,54.45,65.56,54.72z"/>
		<path fill-rule="evenodd" clip-rule="evenodd" fill="#FFFFFF" d="M61.24,55.44c-0.415-0.426-0.72-0.961-1.2-1.32
			c-0.003-0.117-0.146-0.093-0.24-0.12c0.485-0.995,1.645-1.315,2.28-2.16c0.239-0.121,0.513-0.207,0.6-0.479
			c0.887-0.554,1.54-1.341,2.4-1.92c0.273-0.167,0.465-0.416,0.72-0.601c0.439-0.48,0.989-0.852,1.561-1.199
			c-0.889-1.672-2.021-3.101-3-4.68c-0.129-0.272-0.272-0.529-0.48-0.72c-0.755-1.365-1.676-2.564-2.52-3.84
			c1.052-0.947,2.173-1.827,3.479-2.52c2.85,4.19,5.858,8.222,8.521,12.601c-2.249,1.711-4.415,3.505-6.601,5.279
			c-0.329,0.391-0.923,0.518-1.2,0.96c-0.771,0.669-1.594,1.286-2.399,1.92c-0.283,0.037-0.224,0.417-0.601,0.36
			c-0.148-0.251-0.349-0.451-0.6-0.6C61.947,55.853,61.287,55.952,61.24,55.44z"/>
		<path fill-rule="evenodd" clip-rule="evenodd" fill="#FFFFFF" d="M62.08,45.36c0.057,2.669-4.486,2.815-4.92,0.479
			c-0.14-0.39-0.226-1.305,0-1.679c0.233-0.887,0.794-1.446,1.68-1.68c0.381-0.167,1.06-0.167,1.44,0
			c0.881,0.24,1.529,0.711,1.68,1.68C62.173,44.387,62.048,44.953,62.08,45.36z"/>
		<path fill-rule="evenodd" clip-rule="evenodd" fill="#F8D1D3" d="M36.52,48.6c0.228,0.012-0.074,0.469-0.241,0.48
			c0-0.12,0-0.24,0-0.36c-4.52-0.08-9.359,0.16-13.679-0.12C27.24,48.6,31.879,48.6,36.52,48.6z"/>
		<path fill-rule="evenodd" clip-rule="evenodd" fill="#EC1323" d="M48.76,66.84c7.08,0.28,14.68,0.04,21.96,0.121
			C64.645,67.521,55.224,67.032,49,67.2C48.753,67.306,48.546,66.805,48.76,66.84z"/>
		<path fill-rule="evenodd" clip-rule="evenodd" fill="#FFFFFF" d="M73.6,62.88c-0.879,1.441-1.874,2.766-2.88,4.081
			c-7.28-0.081-14.88,0.159-21.96-0.121c0.856-1.304,1.716-2.604,2.641-3.84c0.134-0.025,0.187-0.133,0.239-0.24
			c7.243-0.001,15.117,0.002,21.96,0C73.6,62.8,73.6,62.84,73.6,62.88z"/>
		<path fill-rule="evenodd" clip-rule="evenodd" fill="#F8D1D3" d="M51.4,63c0.022-0.098,0.12-0.119,0.119-0.24
			c4.865-0.216,11.084-0.12,16.801-0.12c1.589,0,4.464-0.339,5.399,0.24c-0.028-0.018-0.089,0.015-0.12,0c0-0.04,0-0.08,0-0.12
			c-6.843,0.002-14.717-0.001-21.96,0C51.587,62.867,51.534,62.975,51.4,63z"/>
		<path fill-rule="evenodd" clip-rule="evenodd" fill="#F8D1D3" d="M35.319,81.12c13.001-0.36,26.841,0.12,39.841-0.24
			c0.24,0,0.479,0,0.72,0c0.005,0.205-0.089,0.311-0.24,0.36c-13.16-0.2-27.159-0.2-40.32,0C35.319,81.2,35.319,81.16,35.319,81.12z
			"/>
		<path fill-rule="evenodd" clip-rule="evenodd" fill="#FFFFFF" d="M75.64,81.24c-1.116,1.443-2.059,3.061-3.359,4.319
			c-13.2,0-26.4,0-39.6,0c0.789-1.53,1.699-2.94,2.639-4.319C48.48,81.04,62.479,81.04,75.64,81.24z"/>
		<path fill-rule="evenodd" clip-rule="evenodd" fill="#EC1323" d="M77.56,2.64c-0.12-0.361,0.268-0.213,0.479-0.24
			C77.986,2.627,78.203,3.123,77.8,3c0.007-0.153,0.154-0.166,0.12-0.36C77.889,2.453,77.657,2.557,77.56,2.64z"/>
		<path fill-rule="evenodd" clip-rule="evenodd" fill="#EC1323" d="M15.16,31.92c3.353-0.55,10.704-0.074,14.52-0.24
			C25.316,32.236,19.923,31.763,15.16,31.92z"/>
		<path fill-rule="evenodd" clip-rule="evenodd" fill="#EC1323" d="M12.88,36c3.88,0.36,8.6-0.12,12.48,0.24
			c-0.007,0.073-0.018,0.142-0.12,0.12c-3.88-0.36-8.6,0.12-12.48-0.24c-0.01-0.17-0.02-0.34,0.12-0.36
			C12.88,35.84,12.88,35.92,12.88,36z"/>
		<path fill-rule="evenodd" clip-rule="evenodd" fill="#F8D1D3" d="M27.88,40.08c3.055,0,6.812,0,10.2,0
			c1.045,0,3.291-0.173,3.24,0.24c-4.24-0.28-9-0.04-13.44-0.12C27.88,40.16,27.88,40.12,27.88,40.08z"/>
		<path fill-rule="evenodd" clip-rule="evenodd" fill="#EC1323" d="M58.84,42.48c0.02-0.424,1.404-0.339,1.44,0
			C59.899,42.313,59.221,42.313,58.84,42.48z"/>
		<path fill-rule="evenodd" clip-rule="evenodd" fill="#F8D1D3" d="M24.76,44.4c1.699-0.433,4.801-0.24,7.201-0.24
			c2.422,0,4.826,0,7.08,0c-4.44,0.359-9.72-0.12-14.16,0.24C24.84,44.4,24.8,44.4,24.76,44.4z"/>
		<path fill-rule="evenodd" clip-rule="evenodd" fill="#B02B31" d="M39.16,44.04c0,0.12,0,0.24,0,0.36c-4.761,0-9.52,0-14.28,0
			c4.44-0.36,9.72,0.12,14.16-0.24C39.046,44.086,39.058,44.019,39.16,44.04z"/>
		<path fill-rule="evenodd" clip-rule="evenodd" fill="#E0767B" d="M61.96,44.16c0.429-0.062,0.274,1.077,0.12,1.2
			C62.048,44.953,62.173,44.387,61.96,44.16z"/>
		<path fill-rule="evenodd" clip-rule="evenodd" fill="#EC1323" d="M57.16,44.16c-0.226,0.374-0.14,1.289,0,1.679
			C56.769,45.788,56.769,44.212,57.16,44.16z"/>
		<path fill-rule="evenodd" clip-rule="evenodd" fill="#B02B31" d="M22.6,48.6c-0.276-0.131,0.12-0.589,0.24-0.719
			c-0.692,0.965,2.324,0.6,3.479,0.6c3.21,0,7.579-0.095,10.201,0.119C31.879,48.6,27.24,48.6,22.6,48.6z"/>
		<path fill-rule="evenodd" clip-rule="evenodd" fill="#EC1323" d="M15.16,56.88c-0.236,0.284,0.033,1.073-0.24,1.32
			C15.041,57.801,14.655,56.895,15.16,56.88z"/>
		<path fill-rule="evenodd" clip-rule="evenodd" fill="#EC1323" d="M19.48,58.32c-0.075,0.445,0.195,1.234-0.24,1.319
			C19.398,59.278,19.252,58.612,19.48,58.32z"/>
		<path fill-rule="evenodd" clip-rule="evenodd" fill="#EC1323" d="M14.92,59.76c-0.275,0.245-0.043,0.997-0.12,1.44
			c-0.04,0-0.08,0-0.12,0c0.104-0.576-0.24-1.601,0.24-1.8C14.92,59.52,14.92,59.64,14.92,59.76z"/>
		<path fill-rule="evenodd" clip-rule="evenodd" fill="#EC1323" d="M19.48,63.96c-0.228-0.292-0.082-0.958-0.24-1.32
			C19.597,62.803,19.451,63.469,19.48,63.96z"/>
		<path fill-rule="evenodd" clip-rule="evenodd" fill="#B02B31" d="M14.8,63.36c0.076,0.364-0.153,1.033,0.12,1.199
			c0,0.12,0,0.24,0,0.36c-0.461-0.139-0.148-1.051-0.24-1.56C14.72,63.36,14.76,63.36,14.8,63.36z"/>
		<path fill-rule="evenodd" clip-rule="evenodd" fill="#F8D1D3" d="M5.56,48.6c3.96-0.079,8.239,0.159,12-0.119
			c-0.024,0.106-0.006,0.219-0.12,0.239c-3.574,0.654-8.072-0.487-11.88,0C5.56,48.68,5.56,48.64,5.56,48.6z"/>
		<path fill-rule="evenodd" clip-rule="evenodd" fill="#F8D1D3" d="M3.4,52.68c4.16,0.08,8.64-0.159,12.6,0.119
			c-0.007,0.074-0.018,0.144-0.12,0.121C12.199,52.564,6.861,53.035,3.4,52.68z"/>
		<path fill-rule="evenodd" clip-rule="evenodd" fill="#F8D1D3" d="M14.92,59.76c0,1.601,0,3.2,0,4.8
			c-0.273-0.166-0.044-0.835-0.12-1.199c0-0.721,0-1.44,0-2.16C14.876,60.757,14.645,60.005,14.92,59.76z"/>
		<path fill-rule="evenodd" clip-rule="evenodd" fill="#B02B31" d="M8.08,44.16c3.56,0.279,7.64,0.04,11.4,0.12
			c0.121,0.001,0.151,0.21,0,0.24c-1.535-0.215-3.659-0.12-5.88-0.12c-1.985,0-4.551,0.433-5.64-0.24
			C7.989,44.178,8.049,44.146,8.08,44.16z"/>
		<path fill-rule="evenodd" clip-rule="evenodd" fill="#B02B31" d="M5.56,48.6c3.685-0.435,8.514,0.274,12-0.359
			c0,0.08,0,0.16,0,0.24C13.799,48.759,9.521,48.521,5.56,48.6z"/>
		<path fill-rule="evenodd" clip-rule="evenodd" fill="#E0767B" d="M35.319,81.12c6.1-0.556,13.239-0.083,19.801-0.24
			c6.68,0,13.36,0,20.04,0C62.16,81.24,48.32,80.76,35.319,81.12z"/>
	</g>
</g>
</svg>
