<?xml version="1.0" encoding="utf-8"?>
<!-- Generator: Adobe Illustrator 15.0.0, SVG Export Plug-In . SVG Version: 6.00 Build 0)  -->
<!DOCTYPE svg PUBLIC "-//W3C//DTD SVG 1.1//EN" "http://www.w3.org/Graphics/SVG/1.1/DTD/svg11.dtd">
<svg version="1.1" id="Calque_1" xmlns="http://www.w3.org/2000/svg" xmlns:xlink="http://www.w3.org/1999/xlink" x="0px" y="0px"
	 width="107px" height="108px" viewBox="0 0 107 108" enable-background="new 0 0 107 108" xml:space="preserve">
<g>
	<path fill-rule="evenodd" clip-rule="evenodd" fill="#FEFEFE" d="M107,108c1.804-23.367,1-53.584,1-80c0-4.44,2.382-24.146,0-27
		c-1.786-2.141-18.398-1-26-1C57.689,0,8.923-1.426,0,2c0,35.333,0,70.667,0,106C35.667,108,71.333,108,107,108z"/>
	<path fill-rule="evenodd" clip-rule="evenodd" fill="#B83D40" d="M54,37c4.026-1.663,14.974-1.663,19,0C66.667,37,60.333,37,54,37z
		"/>
	<path fill-rule="evenodd" clip-rule="evenodd" fill="#BE0107" d="M53,38c0,9.667,0,19.333,0,29C51.335,59.654,51.335,45.345,53,38z
		"/>
	<path fill-rule="evenodd" clip-rule="evenodd" fill="#FEFEFE" d="M59,56c-2.768,2.565,0.694,11.361-2,14
		c-6.6-5.066-1.289-22.045-3-32c5.805,1.196,16.479-2.479,19,2c0,0.667,0,1.333,0,2c-4.667,0-9.333,0-14,0
		c-2.28,1.386-0.373,6.96-1,10c4,0,8,0,12,0C74.654,57.699,63.131,55.764,59,56z"/>
	<path fill-rule="evenodd" clip-rule="evenodd" fill="#F2B5B4" d="M59,42c0,0.333,0,0.667,0,1c0,2.667,0,5.333,0,8
		c3.667,0,7.333,0,11,0c0,0.333,0,0.667,0,1c-4,0-8,0-12,0C58.627,48.96,56.72,43.386,59,42z"/>
	<path fill-rule="evenodd" clip-rule="evenodd" fill="#B83D40" d="M59,43c0-0.333,0-0.667,0-1c4.667,0,9.333,0,14,0
		c0.333,0,0.667,0,1,0C70.975,44.308,63.686,42.353,59,43z"/>
	<path fill-rule="evenodd" clip-rule="evenodd" fill="#F2B5B4" d="M0,2c8.923-3.426,57.689-2,82-2c7.602,0,24.214-1.141,26,1
		c2.382,2.854,0,22.56,0,27c0,26.416,0.804,56.633-1,80c0-0.333,0-0.667,0-1c0-35,0-70,0-105C92.997-0.331,74.669,1.665,59,1
		C39.667,1,20.333,1,1,1C0.149,0.816,0.057,1.39,0,2z"/>
	<path fill-rule="evenodd" clip-rule="evenodd" fill="#B83D40" d="M0,2c0.057-0.61,0.149-1.184,1-1c0,24.947,0,51.621,0,80
		c0,4.559-2.004,23.996,0,26c2.078,2.078,22.812,0,27,0c26.658,0,53.821,0,79,0c0,0.333,0,0.667,0,1c-35.667,0-71.333,0-107,0
		C0,72.667,0,37.333,0,2z"/>
	<path fill-rule="evenodd" clip-rule="evenodd" fill="#BE0107" d="M40,36c-20.138-4.504-17.747,21.411-3,21
		c-4.038,1.718-7.803-5.287-9,0c1.119-3.923-7.236-3.302-4-9c-4.433,3.723,1.205,10.337,7,10c-5.243,2.097-5.009-0.708-8,3
		c5.528-3.4,11.171,6.428,18,1c-0.683,2.984-3.981,3.352-8,3c-2.878-2.932-4.972-4.959-9-2c0.755,3.578,2.313,6.354,6,7
		c6.658,4.148,14.607-0.192,18-5c-1.797,4.869-6.318,7.016-12,8c1.96,0.881,5.407,9.224,7,4c8.788,12.879,37.556,5.778,56,9
		c0,4,0,8,0,12c2.288-1.712,0.367-7.633,1-11c4.034,0.632,2.716,6.618,3,11c5.17-27.801,1.173-60.393,4-96c0,35,0,70,0,105
		c-25.179,0-52.342,0-79,0c-4.188,0-24.922,2.078-27,0c-2.004-2.004,0-21.441,0-26C1,52.621,1,25.947,1,1c19.333,0,38.667,0,58,0
		C46.997,3.33,30.669,1.336,17,2c0,2.333,0,4.667,0,7c-0.168,2.168,3.547,0.453,5,1c-1.327,7.206,5.156,20.76-2,24
		c3.199,2.136,5.433,5.532,1,8C24.733,41.866,30.699,30.52,40,36z"/>
	<path fill-rule="evenodd" clip-rule="evenodd" fill="#E20104" d="M41,62c-6.829,5.428-12.472-4.4-18-1c2.991-3.708,2.757-0.903,8-3
		c-5.795,0.337-11.433-6.277-7-10c-3.236,5.698,5.119,5.077,4,9c1.197-5.287,4.962,1.718,9,0C39.873,57.127,41.749,58.251,41,62z"/>
	<path fill-rule="evenodd" clip-rule="evenodd" fill="#E20104" d="M48,65c3.429-15.43-11.394-12.606-17-19
		c1.189-7.689,11.163-1.395,13-2c1.615,0.282,1.722-0.945,3-1c0.112-3.779-1.957-5.377-5-6c-0.027-0.973-1.224-0.776-2-1
		c-9.301-5.48-15.267,5.866-19,6c4.433-2.468,2.199-5.864-1-8c7.156-3.24,0.673-16.794,2-24c-1.453-0.547-5.168,1.168-5-1
		c0-2.333,0-4.667,0-7c13.669-0.664,29.997,1.33,42-1c15.669,0.665,33.997-1.331,48,1c-2.827,35.607,1.17,68.199-4,96
		c-0.284-4.382,1.034-10.368-3-11c-0.633,3.367,1.288,9.288-1,11c0-4,0-8,0-12c-18.444-3.222-47.212,3.879-56-9
		c-1.593,5.224-5.04-3.119-7-4C41.682,72.016,46.203,69.869,48,65z M73,37c-4.026-1.663-14.974-1.663-19,0
		c-0.61,0.057-1.184,0.149-1,1c-1.665,7.345-1.665,21.654,0,29c0,1.333,0,2.667,0,4c2,0,4,0,6,0c0-4.667,0-9.333,0-14
		c4.333,0,8.667,0,13,0c-0.605-2.062,1.613-6.947-2-6c-3.667,0-7.333,0-11,0c0-2.667,0-5.333,0-8c4.686-0.647,11.975,1.308,15-1
		C73.453,40.547,75.169,36.832,73,37z M94,37c-5.092-0.153-13.723-3.928-17,0c-4.623,5.54,2.67,27.771,1,34
		c1.758-0.575,5.875,1.209,6-1c0.405-4.262-0.969-10.302,1-13c6.188-0.521,5.565,5.769,8,9c-0.917,5.284,6.179,7.776,10,5
		c-0.254-3.746-1.569-6.431-4-8c-0.957-2.043-2.043-3.957-3-6c6.463-1.48,8.338-14.47,3-19c-0.667,0-1.333,0-2,0
		C96.832,36.835,95.419,36.914,94,37z"/>
	<path fill-rule="evenodd" clip-rule="evenodd" fill="#B83D40" d="M84,70c-0.125,2.209-4.242,0.425-6,1c1.67-6.229-5.623-28.46-1-34
		c3.277-3.928,11.908-0.153,17,0c-5.333,0-10.667,0-16,0c0,11,0,22,0,33c0.667,0,1.333,0,2,0c1,0,2,0,3,0C83.333,70,83.667,70,84,70
		z"/>
	<path fill-rule="evenodd" clip-rule="evenodd" fill="#BE0107" d="M93,66c1.321,0.012,0.914,1.753,2,2c-0.281,1.615,0.945,1.722,1,3
		c2.333,0,4.667,0,7,0C99.179,73.776,92.083,71.284,93,66z"/>
	<path fill-rule="evenodd" clip-rule="evenodd" fill="#F2B5B4" d="M33,65c-3.19,0.857-3.093-1.574-5-2c-0.81,0.19-0.997,1.003-2,1
		c-0.178,3.511,3.378,3.289,4,6c-3.687-0.646-5.245-3.422-6-7C28.028,60.041,30.122,62.068,33,65z"/>
	<path fill-rule="evenodd" clip-rule="evenodd" fill="#FEFEFE" d="M42,37c2.65,1.735,5.613,4.245,2,7
		c-1.837,0.605-11.811-5.689-13,2c5.606,6.394,20.429,3.57,17,19c-3.393,4.808-11.342,9.148-18,5c-0.622-2.711-4.178-2.489-4-6
		c1.003,0.003,1.19-0.81,2-1c1.907,0.426,1.81,2.857,5,2c4.019,0.352,7.317-0.016,8-3c0.749-3.749-1.127-4.873-4-5
		c-14.747,0.411-17.138-25.504,3-21C40.776,36.224,41.973,36.027,42,37z"/>
	<path fill-rule="evenodd" clip-rule="evenodd" fill="#B83D40" d="M42,37c3.043,0.623,5.112,2.221,5,6c-1.278,0.055-1.385,1.282-3,1
		C47.613,41.245,44.65,38.735,42,37z"/>
	<path fill-rule="evenodd" clip-rule="evenodd" fill="#F2B5B4" d="M54,37c6.333,0,12.667,0,19,0c2.169-0.168,0.453,3.547,1,5
		c-0.333,0-0.667,0-1,0c0-0.667,0-1.333,0-2c-2.521-4.479-13.195-0.804-19-2c1.711,9.955-3.6,26.934,3,32
		c2.694-2.639-0.768-11.435,2-14c0,0.333,0,0.667,0,1c0,4.667,0,9.333,0,14c-2,0-4,0-6,0c0-1.333,0-2.667,0-4c0-9.667,0-19.333,0-29
		C52.816,37.149,53.39,37.057,54,37z"/>
	<path fill-rule="evenodd" clip-rule="evenodd" fill="#E47B7A" d="M70,52c0-0.333,0-0.667,0-1c3.613-0.947,1.395,3.938,2,6
		c-4.333,0-8.667,0-13,0c0-0.333,0-0.667,0-1C63.131,55.764,74.654,57.699,70,52z"/>
	<path fill-rule="evenodd" clip-rule="evenodd" fill="#FEFEFE" d="M80,70c-2.26-8.74-0.388-21.612-1-32c6,0,12,0,18,0
		c0.667,0,1.333,0,2,0c5.338,4.53,3.463,17.52-3,19c0.957,2.043,2.043,3.957,3,6c-0.15,2.483,0.517,4.15,2,5
		c-0.42,2.226-5.306,0.783-6,0c-1.086-0.247-0.679-1.988-2-2c-2.435-3.231-1.812-9.521-8-9c-4.315,0.685-0.92,9.08-2,13
		C82,70,81,70,80,70z M94,43c-1.078-1.655-8.922-1.655-10,0c0,2.667,0,5.333,0,8c4.1,0.1,8.196,0.197,11-1c0-2,0-4,0-6
		C94.39,43.943,93.816,43.851,94,43z"/>
	<path fill-rule="evenodd" clip-rule="evenodd" fill="#B83D40" d="M95,68c0.694,0.783,5.58,2.226,6,0c-1.483-0.85-2.15-2.517-2-5
		c2.431,1.569,3.746,4.254,4,8c-2.333,0-4.667,0-7,0C95.945,69.722,94.719,69.615,95,68z"/>
	<path fill-rule="evenodd" clip-rule="evenodd" fill="#E20104" d="M84,43c3.333,0,6.667,0,10,0c-0.184,0.851,0.39,0.943,1,1
		c0,2,0,4,0,6c-2.804,1.197-6.9,1.1-11,1C84,48.333,84,45.667,84,43z"/>
	<path fill-rule="evenodd" clip-rule="evenodd" fill="#F2B5B4" d="M94,37c1.419-0.086,2.832-0.165,3,1c-6,0-12,0-18,0
		c0.612,10.388-1.26,23.26,1,32c-0.667,0-1.333,0-2,0c0-11,0-22,0-33C83.333,37,88.667,37,94,37z"/>
	<path fill-rule="evenodd" clip-rule="evenodd" fill="#B83D40" d="M84,43c1.078-1.655,8.922-1.655,10,0C90.667,43,87.333,43,84,43z"
		/>
	<path fill-rule="evenodd" clip-rule="evenodd" fill="#E47B7A" d="M83,70c1.08-3.92-2.315-12.315,2-13
		c-1.969,2.698-0.595,8.738-1,13C83.667,70,83.333,70,83,70z"/>
</g>
</svg>
