<?xml version="1.0" encoding="utf-8"?>
<!-- Generator: Adobe Illustrator 15.0.0, SVG Export Plug-In . SVG Version: 6.00 Build 0)  -->
<!DOCTYPE svg PUBLIC "-//W3C//DTD SVG 1.1//EN" "http://www.w3.org/Graphics/SVG/1.1/DTD/svg11.dtd">
<svg version="1.1" id="Calque_1" xmlns="http://www.w3.org/2000/svg" xmlns:xlink="http://www.w3.org/1999/xlink" x="0px" y="0px"
	 width="92px" height="69px" viewBox="0 0 92 69" enable-background="new 0 0 92 69" xml:space="preserve">
<g>
	<defs>
		<rect id="SVGID_1_" x="1" y="-3" width="91" height="72"/>
	</defs>
	<clipPath id="SVGID_2_">
		<use xlink:href="#SVGID_1_"  overflow="visible"/>
	</clipPath>
	<g clip-path="url(#SVGID_2_)">
		<g>
			<path fill-rule="evenodd" clip-rule="evenodd" fill="#901768" d="M-53-30c0,41,0,82,0,123c-33.667,0-67.332,0-101,0
				c0-41,0-82,0-123C-120.332-30-86.667-30-53-30z"/>
			<path fill-rule="evenodd" clip-rule="evenodd" fill="#DC011E" d="M106.001-30c1.331,0,2.667,0,3.997,0c0,1.666,0,3.334,0,5
				C107.188-25.188,105.738-26.74,106.001-30z"/>
			<path fill-rule="evenodd" clip-rule="evenodd" fill="#F7ECF2" d="M13.999,21c4.018-0.983,8.777-1.226,14-1
				c0.196,5.529-9.747,0.92-11.001,5c2.53,4.805,10,4.667,12.002,10c-1.44,3.892-3.692,6.976-8.999,7c-2.002,0-4,0-6.002,0
				c-0.667,0-1.331,0-1.998,0c-0.787-2.215-6.192,0.19-5.002-4C8.352,37.686,8.91,36.576,11,37c2.55,1.65,6.705,1.688,9.001,1
				c1.374,0.043,2.195-0.471,3-1c-0.224-0.776-0.028-1.973-1-2c-3.228-3.107-8.549-4.117-11-8c-0.226-1.891,1.127-2.207,1.001-4
				C13.122,22.789,13.557,21.891,13.999,21z"/>
			<path fill-rule="evenodd" clip-rule="evenodd" fill="#AE0669" d="M13.999,42c2.002,0,4,0,6.002,0
				c-0.92,1.746-3.128,2.207-6.002,2C13.999,43.333,13.999,42.667,13.999,42z"/>
			<path fill-rule="evenodd" clip-rule="evenodd" fill="#BE034F" d="M11,37c-0.352-3.317-6.153-1.181-4.999-6
				c1.813,2.187,3.362,4.638,7.998,4c-6.828-2.708-3.478-11.218-6-14c0.907-2.711,3.682,0.842,4.001,2
				c0.126,1.793-1.227,2.109-1.001,4c2.451,3.883,7.772,4.893,11,8c-3.864-0.196-7.369-0.035-10,1c0.744,2.255,5.608,0.391,8,1
				c0,0.333,0,0.667,0,1C17.705,38.688,13.55,38.65,11,37z"/>
			<path fill-rule="evenodd" clip-rule="evenodd" fill="#AE0669" d="M-53-30c22.334,0,44.668,0,66.999,0c0,16.666,0,33.334,0,50
				c-1.085-0.247-0.677-1.988-1.998-2c-2.491,0.406-0.061,3.877,1.998,3c-0.442,0.891-0.877,1.789-1.998,2
				c-0.32-1.158-3.095-4.711-4.001-2c2.522,2.782-0.829,11.292,6,14c-4.636,0.638-6.185-1.813-7.998-4
				c-1.155,4.819,4.647,2.683,4.999,6c-2.09-0.424-2.648,0.686-4.001,1c-1.19,4.19,4.215,1.785,5.002,4
				c0.073,2.338-0.811,10.703,1.998,7c0.102,10.775-0.074,29.92,0,44C-8.335,93-30.666,93-53,93C-53,52-53,11-53-30z"/>
			<path fill-rule="evenodd" clip-rule="evenodd" fill="#BE034F" d="M13.999-30c18.667,0,37.335,0,56.002,0c0,16,0,32,0,48
				c-1.704-0.367-1.89,0.779-2.002,2c-6.796-0.798-10.979,1.019-15.001,3c0.342-2.007-0.203-3.129-1.998-3
				c-5.427,1.574-4.015,9.985-7,14c-4.095-4.906-3.669-14.332-12.998-14C28.992,24.382,26.06,30.195,29,34
				c3.476-0.522,2.616-5.383,4-8c5.1,3.232,5.437,11.231,9.002,16C42.999,42,44,42,45,42c3.158-0.174,2.712-3.955,3-7
				c4.161,4.505,8.854,8.478,19.001,7c-0.183,3.834,0.818,0.362,2.999,1c-1.096,11.361,0.724,32.804,0,50
				c-18.667,0-37.334,0-56.002,0c-0.074-14.08,0.102-33.225,0-44c-2.809,3.703-1.925-4.662-1.998-7c0.667,0,1.331,0,1.998,0
				c0,0.667,0,1.333,0,2c2.874,0.207,5.082-0.254,6.002-2c5.307-0.024,7.559-3.108,8.999-7c-2.002-5.333-9.472-5.195-12.002-10
				c1.254-4.08,11.197,0.529,11.001-5c-5.223-0.226-9.982,0.017-14,1c-2.059,0.877-4.489-2.594-1.998-3
				c1.321,0.012,0.913,1.753,1.998,2C13.999,3.334,13.999-13.334,13.999-30z M20.001,27c2.277-1.373,3.759,2.578,3.997,0
				c-1.208-0.211-0.611-1.109,0-2C22.513,23.426,19.534,23.886,20.001,27z"/>
			<path fill-rule="evenodd" clip-rule="evenodd" fill="#AE0669" d="M23.998,25c-0.611,0.891-1.208,1.789,0,2
				c-0.238,2.578-1.72-1.373-3.997,0C19.534,23.886,22.513,23.426,23.998,25z"/>
			<path fill-rule="evenodd" clip-rule="evenodd" fill="#BE034F" d="M73,37c0,0.667,0,1.333,0,2c1.44-0.56,2.441-1.56,3-3
				c1.289,0.711-0.674,6.593-5.002,5C72.386,40.387,71.149,37.15,73,37z"/>
			<path fill-rule="evenodd" clip-rule="evenodd" fill="#F7ECF2" d="M67.002,42c-10.147,1.478-14.84-2.495-19.001-7
				c-0.289,3.045,0.157,6.826-3,7c-1.001,0-2.002,0-2.998,0C38.437,37.231,38.1,29.232,33,26c-1.384,2.617-0.524,7.478-4,8
				c-2.94-3.805-0.008-9.618,2.002-14c9.329-0.332,8.903,9.094,12.998,14c2.985-4.015,1.574-12.426,7-14
				c1.795-0.129,2.34,0.993,1.998,3c4.021-1.981,8.205-3.798,15.001-3c1.704-0.367,1.886,0.779,2.002,2
				C66.656,24.305,59.197,23.254,55,27c-6.922,8.807,11.061,16.601,12.999,7c2.175-4.16,2.88-9.787,5.001-14
				c5.666,0,11.334,0,16.999,0c0.177,5.686-7.48,4.295-11.997,3c-2.156,0.846-1.616,4.387-3.002,6c3.332,0,6.665,0,10.002,0
				c0.555,4.891-6.281,2.389-10.002,3c-1.484,0.85-2.15,2.517-2,5c-1.851,0.15-0.614,3.387-2.002,4
				C68.912,40.576,68.354,41.686,67.002,42z"/>
			<path fill-rule="evenodd" clip-rule="evenodd" fill="#BE034F" d="M67.999,34C66.061,43.601,48.078,35.807,55,27
				c4.197-3.746,11.656-2.695,15.001-5c1.138,5.807-8.819,0.516-9.003,5c1.574,3.656,1.498-2.323,4.002-1
				c1.365,1.968,0.955,5.712,2.002,8c-3.625,0.957-1.019-4.316-3.003-5c-1.971,1.078-1.708,8.296,2.002,7
				C67.086,35.753,66.678,34.012,67.999,34z"/>
			<path fill-rule="evenodd" clip-rule="evenodd" fill="#AE0669" d="M22,35c0.972,0.027,0.776,1.224,1,2
				c-0.805,0.529-1.625,1.043-3,1c0-0.333,0-0.667,0-1c-2.392-0.609-7.256,1.255-8-1C14.631,34.965,18.137,34.804,22,35z"/>
			<path fill-rule="evenodd" clip-rule="evenodd" fill="#CE0134" d="M67.002,42c1.352-0.314,1.91-1.424,3.996-1
				c4.328,1.593,6.291-4.289,5.002-5c-0.559,1.44-1.56,2.44-3,3c0-0.667,0-1.333,0-2c-0.15-2.483,0.516-4.15,2-5
				c3.721-0.611,10.557,1.891,10.002-3c-3.337,0-6.67,0-10.002,0c1.386-1.613,0.846-5.154,3.002-6
				c4.517,1.295,12.174,2.686,11.997-3C84.334,20,78.666,20,73,20c-2.121,4.213-2.826,9.84-5.001,14
				c-1.321,0.012-0.913,1.753-1.998,2c-3.71,1.296-3.973-5.922-2.002-7c1.984,0.684-0.622,5.957,3.003,5
				c-1.047-2.288-0.637-6.032-2.002-8c-2.504-1.323-2.428,4.656-4.002,1c0.184-4.484,10.141,0.807,9.003-5
				c-0.116-1.221-0.298-2.367-2.002-2c0.112-1.221,0.298-2.367,2.002-2c0-16,0-32,0-48c11.998,0,23.999,0,36,0
				c-0.263,3.26,1.187,4.812,3.997,5c0-1.666,0-3.334,0-5c0.336,0,0.666,0,1.002,0c0,2.334,0,4.666,0,7c0.308,1.357,2.502,0.83,4,1
				c4.256,34.743,0.965,77.036,2.002,115c-15.668,0-31.337,0-47.001,0c0.724-17.196-1.096-38.639,0-50
				C67.82,42.362,66.819,45.834,67.002,42z"/>
			<path fill-rule="evenodd" clip-rule="evenodd" fill="#DC011E" d="M111-30c48.334,0,96.665,0,145,0c0,41,0,82,0,123
				c-46.333,0-92.666,0-138.998,0c-1.037-37.964,2.254-80.257-2.002-115c-1.498-0.17-3.692,0.357-4-1C111-25.334,111-27.666,111-30z
				"/>
		</g>
	</g>
</g>
</svg>
