<?xml version="1.0" encoding="utf-8"?>
<!-- Generator: Adobe Illustrator 15.0.0, SVG Export Plug-In . SVG Version: 6.00 Build 0)  -->
<!DOCTYPE svg PUBLIC "-//W3C//DTD SVG 1.1//EN" "http://www.w3.org/Graphics/SVG/1.1/DTD/svg11.dtd">
<svg version="1.1" id="Calque_1" xmlns="http://www.w3.org/2000/svg" xmlns:xlink="http://www.w3.org/1999/xlink" x="0px" y="0px"
	 width="193px" height="192px" viewBox="0 0 193 192" enable-background="new 0 0 193 192" xml:space="preserve">
<g>
	<path fill-rule="evenodd" clip-rule="evenodd" fill="#D3DEEF" d="M86,1c0-0.333,0-0.667,0-1c1.667,0,3.333,0,5,0
		c0,0.333,0,0.667,0,1C89.333,1,87.667,1,86,1z"/>
	<path fill-rule="evenodd" clip-rule="evenodd" fill="#9AA9CF" d="M91,1c0-0.333,0-0.667,0-1c3.667,0,7.333,0,11,0
		c0,0.333,0,0.667,0,1C98.333,1,94.667,1,91,1z"/>
	<path fill-rule="evenodd" clip-rule="evenodd" fill="#D3DEEF" d="M102,1c0-0.333,0-0.667,0-1c1.667,0,3.333,0,5,0
		c0,0.333,0,0.667,0,1C105.333,1,103.667,1,102,1z"/>
	<path fill-rule="evenodd" clip-rule="evenodd" fill="#47508F" d="M76,5c-0.306-1.86,3.316-0.165,4-1c1.412-1.726,4.041,0.959,6-1
		c0.067-0.067-0.072-0.988,0-1c2.288-0.384,5.922-0.149,9,0c2.869,0.139,8.428,0.013,4,1c-1,0-2,0-3,0c-2.333,0-4.667,0-7,0
		c-1.361,0.127-2.053,0.412-3,1c-1.163,0.723-1.753,2.513-5,2c0.188,0.03-0.462-1.673-1-1C79.439,5.701,77.849,6.678,76,5z"/>
	<path fill-rule="evenodd" clip-rule="evenodd" fill="#7280B4" d="M159,31c0.733-1.781,1.818-0.144,3,0
		C161.267,32.781,160.182,31.144,159,31z"/>
	<path fill-rule="evenodd" clip-rule="evenodd" fill="#7280B4" d="M74,51c0.186-1.481,2.417-0.917,4-1
		C77.814,51.481,75.583,50.917,74,51z"/>
	<path fill-rule="evenodd" clip-rule="evenodd" fill="#7280B4" d="M85,51c0-0.333,0-0.667,0-1c1.496,0.17,3.69-0.357,4,1
		C87.667,51,86.333,51,85,51z"/>
	<path fill-rule="evenodd" clip-rule="evenodd" fill="#1C174A" d="M16,61c1.59-0.281,1.401,5.401-1,3
		C15.384,64.384,16.07,60.988,16,61z"/>
	<path fill-rule="evenodd" clip-rule="evenodd" fill="#9AA9CF" d="M89,76c0.186-1.481,2.417-0.917,4-1c0,0.333,0,0.667,0,1
		c-0.333,0-0.667,0-1,0C91,76,90,76,89,76z"/>
	<path fill-rule="evenodd" clip-rule="evenodd" fill="#D3DEEF" d="M88,77c0.057-0.61,0.149-1.184,1-1c1,0,2,0,3,0
		C91.814,77.481,89.583,76.917,88,77z"/>
	<path fill-rule="evenodd" clip-rule="evenodd" fill="#D3DEEF" d="M94,82c0.759-1.653,8.24-1.653,9,0c-0.333,0-0.667,0-1,0
		c-2,0-4,0-6,0C95.333,82,94.667,82,94,82z"/>
	<path fill-rule="evenodd" clip-rule="evenodd" fill="#7280B4" d="M192,108c-2.295-2.038-0.362-8.305-1-12
		c0.638-3.695-1.295-9.961,1-12c0,0.667,0,1.333,0,2c0,2.333,0,4.667,0,7c0,2,0,4,0,6c0,2.333,0,4.667,0,7
		C192,106.667,192,107.333,192,108z"/>
	<path fill-rule="evenodd" clip-rule="evenodd" fill="#47508F" d="M4,86c2.487,0.15,0.292,3.386,0,4c0.58,2.036-0.681,7.88-1,3
		C2.42,89.753,3.681,88.348,4,86z"/>
	<path fill-rule="evenodd" clip-rule="evenodd" fill="#D3DEEF" d="M192,86c2.236,0.431,0.405,4.928,1,7c-0.333,0-0.667,0-1,0
		C192,90.667,192,88.333,192,86z"/>
	<path fill-rule="evenodd" clip-rule="evenodd" fill="#D3DEEF" d="M1,88c0,1,0,2,0,3c0,3,0,6,0,9c0,0.667,0,1.333,0,2
		c-1.819-0.725-1-4.25-1-7S-0.819,88.725,1,88z"/>
	<path fill-rule="evenodd" clip-rule="evenodd" fill="#7280B4" d="M178,90c2.209,0.125,0.425,4.242,1,6
		c-0.575,1.758,1.209,5.875-1,6C178,98,178,94,178,90z"/>
	<path fill-rule="evenodd" clip-rule="evenodd" fill="#9AA9CF" d="M192,93c0.333,0,0.667,0,1,0c0,2,0,4,0,6c-0.333,0-0.667,0-1,0
		C192,97,192,95,192,93z"/>
	<path fill-rule="evenodd" clip-rule="evenodd" fill="#47508F" d="M3,97c1.774-2.668,0.729,5.859,1,8
		C2.226,107.668,3.271,99.141,3,97z"/>
	<path fill-rule="evenodd" clip-rule="evenodd" fill="#7280B4" d="M36,98c-0.224,0.776-0.027,1.973-1,2
		c-0.779-0.221-1.163-0.838-1-2C34.667,98,35.333,98,36,98z"/>
	<path fill-rule="evenodd" clip-rule="evenodd" fill="#D3DEEF" d="M192,99c0.333,0,0.667,0,1,0c-0.595,2.071,1.236,6.569-1,7
		C192,103.667,192,101.333,192,99z"/>
	<path fill-rule="evenodd" clip-rule="evenodd" fill="#47508F" d="M1,100c1.481,0.186,0.917,2.417,1,4c-0.333,0-0.667,0-1,0
		c0-0.667,0-1.333,0-2S1,100.667,1,100z"/>
	<path fill-rule="evenodd" clip-rule="evenodd" fill="#D3DEEF" d="M140,100c1.48,0.186,0.917,2.417,1,4
		C139.52,103.814,140.083,101.583,140,100z"/>
	<path fill-rule="evenodd" clip-rule="evenodd" fill="#1C174A" d="M129,104c0,0.333,0,0.667,0,1c-0.221,0.779-0.838,1.162-2,1
		c0-0.667,0-1.333,0-2C127.667,104,128.333,104,129,104z"/>
	<path fill-rule="evenodd" clip-rule="evenodd" fill="#47508F" d="M178,104c-0.17,1.496,0.357,3.69-1,4
		C177.171,106.504,176.643,104.31,178,104z"/>
	<path fill-rule="evenodd" clip-rule="evenodd" fill="#9AA9CF" d="M130,110c1.646,0.136,1.646,6.864,0,7
		C130,114.667,130,112.333,130,110z"/>
	<path fill-rule="evenodd" clip-rule="evenodd" fill="#47508F" d="M69,117c-2.816,0.2,0.276-7.475,0-2C69,115.667,69,116.333,69,117
		z"/>
	<path fill-rule="evenodd" clip-rule="evenodd" fill="#7280B4" d="M78,113c0,1.333,0,2.667,0,4
		C76.378,117.716,76.378,112.284,78,113z"/>
	<path fill-rule="evenodd" clip-rule="evenodd" fill="#9AA9CF" d="M74,117c0.524,7.476,5.581,10.419,10,14
		c2.816-0.533,11.191,1.485,8-2c2.465,0.132,4.818,0.151,6-1c5.282-0.563-2.318,3.017-2,3c-1.035,0.055-0.592,0.844-1,1
		c-1.124,0.431-2.807-0.213-4,0c0.021-0.004-0.457,0.836-1,1c-0.75,0.227-2.213,0.046-3,0c-0.442-0.025-3.847-0.547-5-1
		c-0.341-0.134-0.554-1.833-1-2c-0.449-0.168-2.461,0.731-2,1c-2.51-1.462-0.87-4.98-4-3c-0.546-3.787-2.419-6.247-2-11
		C73.333,117,73.667,117,74,117z"/>
	<path fill-rule="evenodd" clip-rule="evenodd" fill="#D3DEEF" d="M110,117c1.646,0.136,1.646,6.864,0,7
		C110,121.667,110,119.333,110,117z"/>
	<path fill-rule="evenodd" clip-rule="evenodd" fill="#47508F" d="M12,130c1.23,0.437,2.054,1.279,2,3
		C12.77,132.563,11.946,131.721,12,130z"/>
	<path fill-rule="evenodd" clip-rule="evenodd" fill="#D3DEEF" d="M101,139c-0.396-1.94,4.555-1.461,3,1c-0.667,0-1.333,0-2,0
		C102.184,139.149,101.61,139.057,101,139z"/>
	<path fill-rule="evenodd" clip-rule="evenodd" fill="#D3DEEF" d="M81,190c1.333,0,2.667,0,4,0c0,0.333,0,0.667,0,1
		C83.504,190.83,81.31,191.357,81,190z"/>
	<path fill-rule="evenodd" clip-rule="evenodd" fill="#D3DEEF" d="M92,191c3,0,6,0,9,0C100.241,192.653,92.759,192.653,92,191z"/>
	<path fill-rule="evenodd" clip-rule="evenodd" fill="#D3DEEF" d="M24,33c1.34-1.736,2.563-3.541,4-5c2.397-2.434,5.296-5.306,8-6
		c-0.443,0.89-0.878,1.789-2,2c-2.754,1.913-5.087,4.246-7,7C25.687,31.354,25.427,32.761,24,33z"/>
	<path fill-rule="evenodd" clip-rule="evenodd" fill="#7280B4" d="M25,159c3.276,1.724,4.724,5.276,8,7c0,0.333,0,0.667,0,1
		C29.914,164.753,27.247,162.087,25,159z"/>
	<path fill-rule="evenodd" clip-rule="evenodd" fill="#D3DEEF" d="M126,187c1.395-1.938,5.176-1.491,7-3
		C132.089,186.422,128.981,186.647,126,187z"/>
	<path fill-rule="evenodd" clip-rule="evenodd" fill="#D3DEEF" d="M160,168c2.581-3.419,5.581-6.419,9-9
		C166.419,162.419,163.419,165.419,160,168z"/>
	<path fill-rule="evenodd" clip-rule="evenodd" fill="#9AA9CF" d="M169,158c0.184-0.851-0.39-0.943-1-1c0.19-1.135,1.003-0.556,1,0
		c1.313-0.354,1.573-1.761,3-2C171.44,156.44,170.44,157.44,169,158z"/>
	<path fill-rule="evenodd" clip-rule="evenodd" fill="#9AA9CF" d="M166,31c-1.104-3.229-5.224-3.443-6-7
		c3.087,2.247,5.753,4.914,8,8C167.19,31.81,167.003,30.997,166,31z"/>
	<path fill-rule="evenodd" clip-rule="evenodd" fill="#D3DEEF" d="M146,14c-1.496-1.171-4.09-1.243-5-3
		C143.333,11.334,145.309,12.025,146,14z"/>
	<path fill-rule="evenodd" clip-rule="evenodd" fill="#1C174A" d="M86,1c1.667,0,3.333,0,5,0c3.667,0,7.333,0,11,0
		c1.667,0,3.333,0,5,0c2.355-0.022,2.944,1.723,6,1c0.31,1.357,2.504,0.83,4,1c0.333,0,0.667,0,1,0c2.294,3.431-0.681,1.473-3,1
		c-2.004-0.409-1.92,0.08-3-1c-1.098-1.097-3.396,1.012-4,1c-2.043-0.039-2.692-1.017-4-1c-1.633,0.021-1.695,0.793-3,1
		c-5.36,0.851-10.667-0.897-15,1c-0.577,0.253-1.537,1.814-2,2c-0.569,0.228-1.402-0.149-2,0c-0.613,0.153-0.991,0.999-1,1
		c-1.646,0.255-1.708-1.084-3-1c-1.652,0.107-2.27,1.328-4,1c-2.739-0.519-0.822-1.51-4-2c-2.934,0.85,1.301,2.517,0,5
		c-1.293,1.44-9.63,0.946-7,3c-0.85,2.934-2.517-1.301-5,0c0.027,0.973,1.224,0.776,2,1c-0.118,1.849-3.012,1.367-4,2
		c-1.89,1.21-2.139,1.861-3,4c-0.922,0.237-2.097-0.296-3,0c-1.271,0.417-0.178,1.419-1,2c-1.083,0.766-4.246-0.214-2,1
		c-0.247,1.258-1.988,1.009-2,0c-1.81,0.875,0.42,0.675-1,3c-0.554,0.906-3.779,1.589-3,4c-1.107,0.516-0.608-1.903-1-2
		c-2.24-0.555-0.884,4.21-5,3c0.65,1.017,2.299,1.034,2,3c-0.779,0.038-1.035,1.193-2,1c-0.311-0.062-1.459-1.899-1-2
		c-0.047,0.01-2,1-2,1c-0.761,2.028,2.607,3.767-1,2c0.184,1.2-1.696,1.384-2,2c-0.524,1.061,0.945,0.724,1,1
		c0.404,2.019-5.041,4.049-4,8c-0.387,0.254-1.698-0.332-2,0c-2.542,2.794-3.436,6.534-7,8c0.437,1.484,1.28-0.395,3,0
		c0.924,2.119-1.506,1.342-2,2c-0.149,0.199,0.191,1.941,0,2c-0.687,0.211-1.096-1.324-2-1c-0.926,3.923-2.178,3.717-1,8
		c-2.957,0.513-1.574,7.325-3,11c-0.162,0.417-1.947,1.743-2,2c-0.832,4.029-0.489,9.054-1,13c-0.189,1.461-0.992,1.837-1,3
		c-0.015,2.202,0.782,2.504,1,4c0.419,2.873,0.068,5.528,1,8c0.133,0.353-0.27,1.779,0,2c1.693,1.385-0.047,1.332,0,3
		c0.146,5.145,3.599,10.218,3,15c2.318,2.682,3.59,6.41,4,11c0.997,1.336,2.703,1.964,3,4c-0.1,2.169-0.447,1.554-1,1
		c-2.273-2.273,0.32,4.967,2,1c1.258,0.247,1.009,1.988,0,2c-0.028,1.39,1.276,0.237,1,0c0.863,0.742,0.516,0.791,1,2
		c0.078,0.195,2.094,4.925,2,5c-1.187,0.949-0.103,0.952,0,0c1.781,0.733,0.144,1.818,0,3c1.793,0.127,2.109-1.225,4-1
		c-0.027,0.973-1.224,0.776-2,1c-0.55,2.217,1.91,1.424,2,3c0.733,0.934,1.818,1.515,3,2c1.067,0.933,0.311,3.688,3,3
		c0.586,2.081,2.102,3.232,3,5c1.308-0.699,1.598,0.892,2,1c0.386,0.104,1.549-1.451,2-1c0.602,0.602-1.948,3.124-3,1
		c-1.003,0.003-1.19-0.81-2-1c-0.903-1.763-2.237-3.097-4-4c-3.276-1.724-4.724-5.276-8-7c-11.133-13.533-20.422-28.911-23-51
		c0-1.333,0-2.667,0-4c-0.083-1.583,0.481-3.814-1-4c0-3,0-6,0-9c2.255-0.745,0.391-5.609,1-8c0-0.667,0-1.333,0-2
		c1.357-0.31,0.83-2.504,1-4c1.556-4.955,2.312-13.801,5-16c0.292-0.239-0.172-1.637,0-2c0.059-0.125,0.883,0.096,1,0
		c0.295-0.242-0.179-1.636,0-2c0.063-0.128,0.88,0.098,1,0c0.292-0.239-0.172-1.637,0-2c0.059-0.125,0.883,0.096,1,0
		c0.296-0.243-0.182-1.635,0-2c0.064-0.129,0.879,0.099,1,0c0.292-0.239-0.172-1.637,0-2c0.059-0.125,0.883,0.096,1,0
		c0.295-0.242-0.179-1.636,0-2c0.063-0.128,0.88,0.098,1,0c0.292-0.239-0.172-1.637,0-2c0.059-0.125,0.883,0.096,1,0
		c0.316-0.259-0.223-1.634,0-2c0.18-0.295,1.699-0.754,2-1c0.335-0.274-0.279-1.652,0-2c0.674-0.839,2.334-1.133,3-2
		c0.315-0.41-0.217-1.519,0-2c0.133-0.295,1.751-0.675,2-1c0.899-1.175,2.239-2.354,2-4c1.427-0.239,1.687-1.646,3-2
		c0.81,0.19,0.997,1.003,2,1c1.298-1.613-0.34-2.705,1-4c1.457-1.408,1.857,0.438,3-1c2.191,1.935-2.33,5.613-5,6
		c-1.685,4.982-6.225,7.108-8,12c-1.313,1.2-1.573,0.39-3,0c0.529,0.804,1.043,1.624,1,3c-3.951,4.049-5.726,10.274-8,16
		c2.261-0.545,2.214-3.494,3-5c0.318-0.61,0.484-2.312,1-3c0.296-0.394,1.799-0.628,2-1c0.769-1.421,0.232-3.59,1-5
		c0.232-0.426,1.839-0.644,2-1c0.748-1.659,0.692-2.149,2-4c0.444-0.628,1.633-1.409,2-2c1.321-2.125,2.528-4.408,5-7
		c0.604-0.633,1.371-1.385,2-2c0.547-0.534-0.157-0.939,1-1c1.902-0.1,1.466-2.649,3-4c0.336-0.295,1.724,0.338,2,0
		c0.393-0.48,0.546-1.576,1-2c0.209-0.195,1.949-1.98,2-2c0.481-0.19,1.412,1.49,2,1c0.142-0.119-1.128-1.513-1-2
		c0.222-0.843,2.803-0.886,4-2c0.36-0.335,0.625-1.768,1-2c1.544-0.957,4.22-0.943,6-2c0.55-0.326,1.347-1.5,2-2
		c0.775-0.593,1.876-0.763,2-2c3.708-0.958,7.627-1.706,9-5c-1.71-2.916-3.64,2.266-7,1c0.027,0.973,1.224,0.776,2,1
		c0.28,2.736-5.976-1.775-3,1c-0.443,1.454-0.878-0.102-2,0c-1.147,0.354-2.535,1.761-1,2c-0.247,1.086-1.988,0.678-2,2
		c-1.454-0.443,0.102-0.878,0-2c-4.47,0.068-1.274,2.286-3,4c-3.523,0.138-4.946,3.46-7,5c-0.355,0.266-1.729-0.332-2,0
		c-1.125,1.374-1.65,3.686-5,4c-1.2-1.313-0.39-1.573,0-3c1.122-0.211,1.557-1.11,2-2C49.316,11.649,65.588,4.255,86,1z M80,5
		c0.538-0.673,1.188,1.03,1,1c3.247,0.513,3.837-1.277,5-2c0.947-0.588,1.639-0.873,3-1c2.333,0,4.667,0,7,0c1,0,2,0,3,0
		c4.428-0.987-1.131-0.861-4-1c-3.078-0.149-6.712-0.384-9,0c-0.072,0.012,0.067,0.933,0,1c-1.959,1.959-4.588-0.726-6,1
		c-0.684,0.835-4.306-0.86-4,1C77.849,6.678,79.439,5.701,80,5z M3,93c0.319,4.88,1.58-0.964,1-3c0.292-0.614,2.487-3.85,0-4
		C3.681,88.348,2.42,89.753,3,93z M4,105c-0.271-2.141,0.774-10.668-1-8C3.271,99.141,2.226,107.668,4,105z M14,133
		c0.054-1.721-0.77-2.563-2-3C11.946,131.721,12.77,132.563,14,133z M42,20c-0.273,0.334-1.649-0.274-2,0
		c-0.647,0.506-2.095,2.029-3,3c-0.416,0.446-4.167,2.675-1,3c2.822-4.511,8.278-6.389,12-10C45.674,15.935,42.87,18.937,42,20z"/>
	<path fill-rule="evenodd" clip-rule="evenodd" fill="#47508F" d="M118,3c4.356-0.57,8.184,2.546,10,3c0.604,0.151,1.422-0.221,2,0
		c1.796,0.686,2.986,1.747,4,2c2.729,0.682,2.306,1.019,4,2c0.981,0.568,1.612,0.889,3,1c0.91,1.757,3.504,1.829,5,3
		c0.441,1.928,2.917,1.339,4,2c0.753,0.46,0.702,1.932,2,2c1.165,0.062,0.437,0.594,1,1c2.322,1.671,4.532,3.619,7,5
		c0.776,3.557,4.896,3.771,6,7c-0.286,1.763,4.709,3.097,2,4c-3.367,1.852-0.117-0.257-2-2c-1.137-0.482-0.57,1.861-1,2
		c-1.357,0.438-2.631-4.24-4-1c-1.205,0.302-0.484-1.636-1-2c-1.124-0.795-3.944-0.032-3-4c-2.882,2.897-3.128-1.947-7-1
		c-0.898-1.768-2.414-2.919-3-5c-1.572,0.307,0.881,1.822-1,2c-1.92,0.182-2.87-0.342-4-1c-0.471-0.274-3.616-3.914-5-1
		c-1.808-0.191,0.563-1.207,0-2c-0.999-1.406-0.914,0.56-3,0c-0.312-0.084-1.901-1.993-2-2c-1.938-0.131-3.48,1.792-5,1
		c-0.325-2.341-4.362-0.971-5-3c-0.613,1.386-3.85,0.15-4,2c-3.091-0.996-8.344-1.428-14-2c-2.535-0.257-7.831-1.376-13-1
		c-2.035,0.148-4.135,0.562-8,1c-1.806,0.205-4.117,0.516-6,1c-1.427,0.367-4.079,1.231-6,2c-1.246,0.498-6.306,1.802-9,3
		c-0.462,0.206,0.079,0.943-1,1c-0.877,0.046-2.655,1.143-4,2c-1.135,0.724-2.084,1.122-3,2c-0.977,0.936-5.033,2.36-7,4
		c-0.295,0.246-0.726,1.876-1,2c-0.452,0.204-1.636-0.315-2,0c-1.441,1.249-3.391,3.391-5,5c-1.788,1.788-3.69,3.529-5,5
		c-0.968,1.087-1.052,2.894-2,4c-0.675,0.788-2.431,1.173-3,2c-0.641,0.931-0.482,2.105-1,3c-0.475,0.821-1.67,1.396-2,2
		c-0.937,1.718-1.122,4.106-2,6c-0.183,0.394-0.779,0.117-1,1c-0.147,0.589,0.237,1.446,0,2c-0.252,0.589-1.805,1.526-2,2
		c-0.231,0.563,0.148,1.406,0,2c0.009-0.038-0.915,2.93-1,3c-1.105,0.904-0.508,1.371-1,3c-0.312,1.031-0.524,2.425-1,4
		c-0.231,0.766-0.631,2.207-1,5c-0.485,3.67-1.588,12.938-1,20c0.51,6.129,2.648,12.423,4,19c1.418-1.005-0.118-6.412,0-11
		c0.052-2.012-0.886-5.454,1-6c1.824,0.736,0.087,1.814,0,3c-0.128,1.748,1.04,3.102,1,5c0.004-0.203-0.97,0.438-1,1
		c-0.07,1.33,0.054,2.67,0,4c0.831,0.59,1.525-3.692,1-4c0.97,0.567,1.5,5.941,2,8c0.723,2.977,0.531,6.535,1,8
		c0.438,1.367,2.039,3.125,3,5c0.602,1.175,0.428,1.971,1,3c0.293,0.527,0.94-0.133,1,1c0.139,2.632,2.588,3.063,4,5
		c0.261,0.357-0.33,1.729,0,2c0.117,0.096,0.941-0.125,1,0c0.172,0.363-0.292,1.762,0,2c0.34,0.278,1.973,1.903,3,3
		c0.211,0.226,0.788,1.904,1,2c0.366,0.165,1.759-0.289,2,0c0.83,0.995,0.5,2.713,1,4c2.826-0.826,2.591,1.409,5,1
		c0.282,1.615-0.945,1.722-1,3c3.958-1.291,2.042,3.291,6,2c-0.556,2.218,1.917,1.424,2,3c0.078,1.478,1.979,0.442,3,1
		c0.302,0.165-0.277,1.773,0,2c0.201,0.164,0.797-0.161,1,0c0.942,0.749,2.277,1.003,3,3c1.862-0.956,3.342,2.995,4,0
		c1.833,0.122-0.596,1.298,0,2c0.276,0.326,1.73-0.33,2,0c0.08,0.098-0.103,0.963,0,1c1.345,0.483,4.569,0.755,6,1
		c0.097,2.57,3.903,1.43,4,4c3.844,0.15,10.582,2.17,15,3c0.933,0.175,2.094-0.273,3,0c0.484,0.146,1.102,1.014,1,1
		c0.765,0.106,1.036-1.254,2-1c0.226,0.06,0.133,0.922,1,1c4.385,0.397,9.665-1.084,15,1c-2.087,2.981-5.26-1.328-9,0
		c-0.223,1.861,3.206,0.163,4,1c1.96,2.066-2.95,0.608-6,1c-2.159,0.277-4.488,1.644-6,1c3.414,3.023,8.578-0.712,13,0
		c3.183,1.378-3.533,0.989-5,1c-0.164,2.831,6.164-0.831,6,2c-0.667,0-1.333,0-2,0c-4.26-0.074-6.994-1.673-12-1
		c0.136,2.864,6.864-0.864,7,2c-1,0-2,0-3,0c-3,0-6,0-9,0c-1,0-2,0-3,0c-0.31-1.357-2.504-0.83-4-1c-1.333,0-2.667,0-4,0
		c-0.17-1.591-2.438-0.772-4-1c-4.808-0.701-9.983-1.982-12-4c-0.892-0.892-3.947-0.328-5-1c-0.621-0.396-1.39-0.747-2-1
		c-1.208-0.5-2.463-0.304-4-1c-0.372-0.168-0.545-1.784-1-2c-0.797-0.378-2.232,0.429-3,0c-0.259-0.145-0.779-1.73-1-2
		c-0.268-0.328-1.64,0.254-2,0c-1.2-0.846-2.245-2.517-3-3c2.897-0.56-1.534-1.56-1-3c-1.163-0.163-1.779,0.221-2,1
		c-1.122-0.212-1.557-1.109-2-2c1.052,2.124,3.602-0.398,3-1c-0.451-0.451-1.614,1.104-2,1c-0.402-0.108-0.692-1.699-2-1
		c-0.898-1.768-2.414-2.919-3-5c-2.689,0.688-1.933-2.067-3-3c-1.182-0.485-2.267-1.066-3-2c-0.09-1.576-2.55-0.783-2-3
		c0.776-0.224,1.973-0.027,2-1c-1.891-0.225-2.207,1.127-4,1c0.144-1.182,1.781-2.267,0-3c-0.103,0.952-1.187,0.949,0,0
		c0.094-0.075-1.922-4.805-2-5c-0.484-1.209-0.137-1.258-1-2c0.276,0.237-1.028,1.39-1,0c1.009-0.012,1.258-1.753,0-2
		c-1.68,3.967-4.273-3.273-2-1c0.553,0.554,0.9,1.169,1-1c-0.297-2.036-2.003-2.664-3-4c-0.41-4.59-1.682-8.318-4-11
		c0.599-4.782-2.854-9.855-3-15c-0.047-1.668,1.693-1.615,0-3c-0.27-0.221,0.133-1.647,0-2c-0.932-2.472-0.581-5.127-1-8
		c-0.218-1.496-1.015-1.798-1-4c0.008-1.163,0.811-1.539,1-3c0.511-3.946,0.168-8.971,1-13c0.053-0.257,1.838-1.583,2-2
		c1.426-3.675,0.043-10.487,3-11c-1.178-4.283,0.074-4.077,1-8c0.904-0.324,1.313,1.211,2,1c0.191-0.059-0.149-1.801,0-2
		c0.494-0.658,2.924,0.119,2-2c-1.72-0.395-2.563,1.484-3,0c3.564-1.466,4.458-5.206,7-8c0.302-0.332,1.613,0.254,2,0
		c-1.041-3.951,4.404-5.981,4-8c-0.055-0.276-1.524,0.061-1-1c0.304-0.616,2.184-0.8,2-2c3.607,1.767,0.239,0.028,1-2
		c0,0,1.953-0.99,2-1c-0.459,0.101,0.689,1.938,1,2c0.965,0.193,1.221-0.962,2-1c0.299-1.966-1.35-1.983-2-3
		c4.116,1.21,2.76-3.555,5-3c0.392,0.097-0.107,2.516,1,2c-0.779-2.411,2.446-3.094,3-4c1.42-2.325-0.81-2.125,1-3
		c0.012,1.009,1.753,1.258,2,0c-2.246-1.214,0.917-0.234,2-1c0.822-0.581-0.271-1.583,1-2c0.903-0.296,2.078,0.237,3,0
		c0.861-2.139,1.11-2.79,3-4c0.988-0.633,3.882-0.151,4-2c-0.776-0.224-1.973-0.027-2-1c2.483-1.301,4.15,2.934,5,0
		c-2.63-2.054,5.707-1.56,7-3c1.301-2.483-2.934-4.15,0-5c3.178,0.49,1.261,1.481,4,2c1.73,0.328,2.348-0.893,4-1
		c1.292-0.084,1.354,1.255,3,1c0.009-0.001,0.387-0.847,1-1c0.598-0.149,1.431,0.228,2,0c0.463-0.186,1.423-1.747,2-2
		c4.333-1.897,9.64-0.149,15-1c1.305-0.207,1.367-0.979,3-1c1.308-0.017,1.957,0.961,4,1c0.604,0.012,2.902-2.097,4-1
		c1.08,1.08,0.996,0.591,3,1C117.319,4.473,120.294,6.431,118,3z M162,31c-1.182-0.144-2.267-1.781-3,0
		C160.182,31.144,161.267,32.781,162,31z M15,64c2.401,2.401,2.59-3.281,1-3C16.07,60.988,15.384,64.384,15,64z"/>
	<path fill-rule="evenodd" clip-rule="evenodd" fill="#47508F" d="M37,170c-2.039-0.294-1.961-2.706-4-3c0-0.333,0-0.667,0-1
		C34.763,166.903,36.097,168.237,37,170z"/>
	<path fill-rule="evenodd" clip-rule="evenodd" fill="#47508F" d="M27,31c1.913-2.754,4.246-5.087,7-7c-0.39,1.427-1.2,1.687,0,3
		c3.35-0.314,3.875-2.626,5-4c0.271-0.332,1.645,0.266,2,0c2.054-1.54,3.477-4.862,7-5c1.726-1.714-1.47-3.932,3-4
		c0.102,1.122-1.454,1.557,0,2c0.012-1.322,1.753-0.914,2-2c-1.535-0.239-0.147-1.646,1-2c1.122-0.102,1.557,1.454,2,0
		c-2.976-2.775,3.28,1.736,3-1c-0.776-0.224-1.973-0.027-2-1c3.36,1.266,5.29-3.916,7-1c-1.373,3.294-5.292,4.042-9,5
		c-0.124,1.237-1.225,1.407-2,2c-0.653,0.5-1.45,1.674-2,2c-1.78,1.057-4.456,1.043-6,2c-0.375,0.232-0.64,1.665-1,2
		c-1.197,1.114-3.778,1.157-4,2c-0.128,0.487,1.142,1.881,1,2c-0.588,0.49-1.519-1.19-2-1c-0.051,0.02-1.791,1.805-2,2
		c-0.454,0.424-0.607,1.52-1,2c-0.276,0.338-1.664-0.295-2,0c-1.534,1.351-1.098,3.9-3,4c-1.157,0.061-0.453,0.466-1,1
		c-0.629,0.615-1.396,1.367-2,2c-2.472,2.592-3.679,4.875-5,7c-0.367,0.591-1.556,1.372-2,2c-1.308,1.851-1.252,2.341-2,4
		c-0.161,0.356-1.768,0.574-2,1c-0.768,1.41-0.231,3.579-1,5c-0.201,0.372-1.704,0.606-2,1c-0.516,0.688-0.682,2.39-1,3
		c-0.786,1.506-0.739,4.455-3,5c2.274-5.726,4.049-11.951,8-16c0.043-1.376-0.471-2.196-1-3c1.427,0.39,1.687,1.2,3,0
		c1.775-4.892,6.315-7.018,8-12c2.67-0.387,7.191-4.065,5-6c-1.143,1.438-1.543-0.408-3,1c-1.34,1.295,0.298,2.387-1,4
		C27.997,32.003,27.81,31.19,27,31z"/>
	<path fill-rule="evenodd" clip-rule="evenodd" fill="#7280B4" d="M166,31c1.003-0.003,1.19,0.81,2,1c1.818,1.311,2.733,3.435,4,5
		c1.471,1.817,2.729,3.117,4,5c0.501,0.742,1.678,1.414,2,2c0.754,1.373,0.343,2.93,1,4c0.385,0.625,1.485,1.205,2,2
		c0.236,0.365,0.983,1.682,1,2c0.059,1.109,0.751,0.5,1,1c1.37,2.746,1.057,4.666,2,7c0.188,0.467,1.746,1.419,2,2
		c0.554,1.265,0.728,3.155,1,4c1.522,4.726,2.957,10.373,3,16c-1.602,7.405-1.602,20.595,0,28c0,0.667,0,1.333,0,2
		c-0.973-0.027-0.776-1.224-1-2c-2.815,1.011,0.276,4.247,0,6c0,0.333,0,0.667,0,1c-0.81-0.19-0.997-1.003-2-1
		c-0.127,1.794,1.225,2.109,1,4c0.412,3.312-1.645,7.112-2,8c-0.297,0.743-0.981,2.641-1,3c-0.058,1.097-0.771,0.517-1,1
		c-1.025,2.164-1.111,4.179-2,6c-0.062,0.127-0.881-0.098-1,0c-0.292,0.238,0.172,1.637,0,2c-0.059,0.125-0.883-0.096-1,0
		c-0.33,0.27-0.784,2.661-1,3c-1.377,2.16-1.485,2.761-3,4c-0.324,0.266,0.244,1.638,0,2c-0.226,0.336-1.661,0.723-2,1
		c-0.334,0.273,0.274,1.649,0,2c-0.922,1.181-3.079,1.296-3,3c-1.427,0.239-1.687,1.646-3,2c0.003-0.556-0.81-1.135-1,0
		c0.61,0.057,1.184,0.149,1,1c0,0.333,0,0.667,0,1c-3.419,2.581-6.419,5.581-9,9c-8.458,5.875-16.219,12.448-27,16
		c-1.824,1.509-5.605,1.062-7,3c-2.826-0.826-2.591,1.409-5,1c0.306-1.86-3.316-0.165-4-1c-0.378-0.462-2.075-1.671-5-1
		c0.31,1.357,2.504,0.829,4,1c3.73,1.229-9.528,1.365-1,2c-0.186,1.481-2.417,0.917-4,1c0.164-2.831-6.164,0.831-6-2
		c1.467-0.011,8.183,0.378,5-1c-4.422-0.712-9.586,3.023-13,0c1.512,0.644,3.841-0.723,6-1c3.05-0.392,7.96,1.066,6-1
		c-0.794-0.837-4.223,0.861-4-1c3.74-1.328,6.913,2.981,9,0c-5.335-2.084-10.615-0.603-15-1c-0.867-0.078-0.774-0.94-1-1
		c-0.964-0.254-1.235,1.106-2,1c0.102,0.014-0.516-0.854-1-1c-0.906-0.273-2.067,0.175-3,0c-4.418-0.83-11.156-2.85-15-3
		c-0.097-2.57-3.903-1.43-4-4c-1.431-0.245-4.655-0.517-6-1c-0.103-0.037,0.08-0.902,0-1c-0.27-0.33-1.724,0.326-2,0
		c-0.596-0.702,1.833-1.878,0-2c-0.658,2.995-2.138-0.956-4,0c-0.723-1.997-2.058-2.251-3-3c-0.203-0.161-0.799,0.164-1,0
		c-0.277-0.227,0.302-1.835,0-2c-1.021-0.558-2.922,0.478-3-1c-0.083-1.576-2.556-0.782-2-3c-3.958,1.291-2.042-3.291-6-2
		c0.055-1.278,1.282-1.385,1-3c-2.409,0.409-2.174-1.826-5-1c-0.5-1.287-0.17-3.005-1-4c-0.241-0.289-1.634,0.165-2,0
		c-0.212-0.096-0.789-1.774-1-2c-1.027-1.097-2.66-2.722-3-3c-0.292-0.238,0.172-1.637,0-2c-0.059-0.125-0.883,0.096-1,0
		c-0.33-0.271,0.261-1.643,0-2c-1.412-1.937-3.861-2.368-4-5c-0.06-1.133-0.707-0.473-1-1c-0.572-1.029-0.398-1.825-1-3
		c-0.961-1.875-2.562-3.633-3-5c-0.469-1.465-0.277-5.023-1-8c-0.5-2.059-1.03-7.433-2-8c0.525,0.308-0.169,4.59-1,4
		c0.054-1.33-0.07-2.67,0-4c0.03-0.562,1.004-1.203,1-1c0.04-1.898-1.128-3.252-1-5c0.087-1.186,1.824-2.264,0-3
		c-0.328-4.661,0.78-7.886,2-11c1.486-0.847,1.447-3.22,2-5c1.151-4.849,3.508-8.492,6-12c4.122-4.212,8.122-8.545,12-13
		c0.333,0,0.667,0,1,0c2.198-1.136,3.322-3.344,6-4c-0.204,1.203-1.19,1.381-2,2c-0.796,0.608-1.307,1.453-2,2
		c-0.771,0.608-2.139,0.342-3,1c-0.589,0.45-0.047,2.845-2,2c0.905,2.71,3.681-0.842,4-2c4.32,1.876-5.07,3.374-1,5
		c-0.733,1.781-1.818,0.144-3,0c-0.125,2.503-1.909,3.13,1,4c-0.162,1.172-1.823,0.843-3,1c0.109,2.488,1.874,3.096,0,5
		c-1.172-0.162-0.843-1.823-1-3c-2.255,0.745-0.391,5.609-1,8c-1.444,1.223-1.517,3.816-3,5c2.099,3.093-0.948,5.864-1,6
		c-0.232,0.605,2.684,0.453,2,1c-0.929,0.743-4.448,2.666,0,5c-0.583,2.23-0.33,2.013-1,5c-4.108,18.3,3.486,35.965,12,47
		c1.366,1.771,3.261,3.234,5,5c1.447,1.469,2.59,3.898,4,5c0.821,0.641,2.175,0.487,3,1c0.664,0.413,1.4,1.629,2,2
		c0.886,0.548,1.896,0.406,3,1c0.594,0.319,1.491,1.763,2,2c2.375,1.109,6.018,1.876,9,3c0.353,0.133,1.779-0.27,2,0
		c1.122,1.371,4.915,1.308,8,2c10.65,2.391,27.027,1.533,41-3c-0.027,0.973-1.224,0.776-2,1c0.683,1.369,3.818,0.325,5,0
		c1.442-0.396,3.483-1.427,5-2c1.761-0.665,3.398-0.713,4-2c-0.85-2.934-2.517,1.301-5,0c2.091-1.909,4.775-3.225,8-4
		c-0.437,1.23-1.279,2.054-3,2c0.611,3.581,6.396,1.329,6-2c1.464-0.566,2.546-0.308,4-1c2.107-1.003,2.677-3.274,4-4
		c-0.226,0.124,5.44,1.867,4-3c3.284,1.146,2.049,0.715,4-2c0.249-0.346,1.86-0.691,2-1c0.861-1.91,0.365-1.958,2-3
		c0.889-0.566,2.324-2.067,4-3c0-1,0-2,0-3c0.52-1.847,2.621,0.465,3,0c0.168-0.206-1.518-2.049-1-3c0.162-0.297,1.746,0.254,2,0
		c0.34-0.34-0.319-1.635,0-2c0.737-0.843,1.332-0.931,2-2c0.352-0.563,1.868-1.671,2-2c0.312-0.778-0.44-2.297,0-3
		c0.195-0.312,1.713,0.26,2,0c1.665-1.508-0.479-4.073,2-4c-0.711-2.516,0.571-4.285,1-6c0.131-0.522-0.271-1.547,0-2
		c0.175-0.292,1.936-0.79,2-1c0.243-0.789-0.552-3.448,0-4c0.736-0.736,0.682-0.728,1-2c0.164-0.658,0.987-0.932,1-1
		c0.403-2.188-0.555-3.941,0-6c0.071-0.263,0.951-0.078,1-1c0.043-0.817,1.121-0.99,1-2c-0.329-2.338-1.202-4.131-2-6
		c0.934-3.519,1.092-6.634,0-11c-0.172-0.688-0.978-0.892-1-1c-0.512-2.507,0.223-5.207-1-8c-0.224-0.512-1.874-1.612-2-2
		c-0.283-0.874,0.365-2.161,0-3c-0.586-1.347-2.461-2.23-2-4c-0.56-2.259-1.56,1.212-3-1c-0.127-1.793,1.225-2.109,1-4
		c-1.148-0.467-0.557,1.843-1,2c-1.909,0.677-1.063-2.778,0-4c-0.443-1.454-0.878,0.102-2,0c0.367-1.701-0.78-1.887-2-2
		c-3.562,2.126,4.412,3.724,1,6c-1.612-0.794-1.805-3.125-3-5c-0.256-0.401-0.911-0.833-1-1c-0.71-1.338-0.253-2.64-1-4
		c-0.232-0.424-1.84-0.645-2-1c-0.231-0.514,0.305-1.534,0-2c-0.246-0.376-1.853-0.672-2-1c-0.212-0.471,0.316-1.606,0-2
		c-1.72-2.141-5.369-4.517-7-8c-0.903-1.763-2.237-3.097-4-4c-6.786-4.88-13.239-10.094-21-14c-0.658-1.342-2.138-1.862-4-2
		c-3.25-0.75-6.189-1.811-9-3c0.15-1.85,3.387-0.614,4-2c0.638,2.029,4.675,0.659,5,3c1.52,0.792,3.062-1.131,5-1
		c0.099,0.007,1.688,1.916,2,2c2.086,0.56,2.001-1.406,3,0c0.563,0.793-1.808,1.809,0,2c1.384-2.914,4.529,0.726,5,1
		c1.13,0.658,2.08,1.182,4,1c1.881-0.178-0.572-1.693,1-2c0.586,2.081,2.102,3.232,3,5c3.872-0.947,4.118,3.897,7,1
		c-0.944,3.968,1.876,3.205,3,4c0.516,0.364-0.205,2.302,1,2c1.369-3.24,2.643,1.438,4,1c0.43-0.139-0.137-2.482,1-2
		c1.883,1.743-1.367,3.852,2,2C170.709,34.097,165.714,32.763,166,31z M167,38c4.47-1.15,1.274,4.796,3,2
		c0.61-0.057,1.184-0.149,1-1c-1.257-0.41-2.044-1.29-2-3c1.44-0.534,2.44,3.897,3,1c-1.427-0.239-1.687-1.646-3-2
		C168.761,36.427,167.354,36.687,167,38z M177,45c-0.309-2.358-3.473-1.86-3-5C171.298,41.497,175.732,44.173,177,45z M186,66
		c-0.334-2.333-1.025-4.309-3-5C183.111,63.555,184.833,64.5,186,66z M169,56c1.32-2.767-3.953-3.433-1-2
		C167.925,55.401,168.224,57.824,169,56z M187,110c0.17,1.496-0.357,3.69,1,4c0-0.667,0-1.333,0-2c0-1,0-2,0-3
		c2.742-7.259-0.7-20.7,2-28c0.075-1.401-0.224-3.824-1-2c-0.17,1.496,0.357,3.69-1,4c-1.328-3.74,2.981-6.913,0-9
		c-0.156,1.177,0.172,2.838-1,3c-0.156-1.177,0.172-2.838-1-3C188.183,83.694,189.108,99.27,187,110z M185,125
		c-0.34-1.883,2.315-7.288,0-5C185.598,121.78,182.069,124.153,185,125z M180,136c0.719-0.825,3.135-6.468,1-4
		C180.281,132.825,177.865,138.468,180,136z"/>
	<path fill-rule="evenodd" clip-rule="evenodd" fill="#1C174A" d="M21,104c-1.886,0.546-0.948,3.988-1,6
		c-0.118,4.588,1.418,9.995,0,11c-1.352-6.577-3.49-12.871-4-19c-0.588-7.062,0.515-16.33,1-20c0.369-2.793,0.769-4.234,1-5
		c0.476-1.575,0.688-2.969,1-4c0.492-1.629-0.105-2.096,1-3c0.085-0.07,1.009-3.038,1-3c0.148-0.594-0.231-1.437,0-2
		c0.195-0.474,1.748-1.411,2-2c0.237-0.554-0.147-1.411,0-2c0.221-0.883,0.817-0.606,1-1c0.878-1.894,1.063-4.282,2-6
		c0.33-0.604,1.525-1.179,2-2c0.518-0.895,0.359-2.069,1-3c0.569-0.827,2.325-1.212,3-2c0.948-1.106,1.032-2.913,2-4
		c1.31-1.471,3.212-3.212,5-5c1.609-1.609,3.559-3.751,5-5c0.364-0.315,1.548,0.204,2,0c0.274-0.124,0.705-1.754,1-2
		c1.967-1.64,6.023-3.064,7-4c0.916-0.878,1.865-1.276,3-2c1.345-0.857,3.123-1.954,4-2c1.079-0.057,0.538-0.794,1-1
		c2.694-1.198,7.754-2.502,9-3c1.921-0.769,4.573-1.633,6-2c1.883-0.484,4.194-0.795,6-1c3.865-0.438,5.965-0.852,8-1
		c5.169-0.376,10.465,0.743,13,1c5.656,0.572,10.909,1.004,14,2c2.811,1.189,5.75,2.25,9,3c0.658,1.342,2.138,1.862,4,2
		c7.761,3.906,14.214,9.12,21,14c0.903,1.763,2.237,3.097,4,4c1.631,3.483,5.28,5.859,7,8c0.316,0.394-0.212,1.529,0,2
		c0.147,0.328,1.754,0.624,2,1c0.305,0.466-0.231,1.486,0,2c0.16,0.355,1.768,0.576,2,1c0.747,1.36,0.29,2.662,1,4
		c0.089,0.167,0.744,0.599,1,1c1.195,1.875,1.388,4.206,3,5c2.697,7.636,4.752,15.915,6,25c0,4,0,8,0,12c0,0.667,0,1.333,0,2
		c-1.357,0.31-0.829,2.504-1,4c0.143,3.105-0.926,6.151-2,9c-0.133,0.353,0.27,1.779,0,2c-1.741,1.425-2.54,7.777-4,11
		c-0.308,0.678-1.684,1.432-2,2c-0.203,0.366,0.308,1.748,0,2c-0.6,0.491-2.935,2.76-3,4c-0.045,0.854-1.517,2.214-2,3
		c-0.956,1.554-3.167,3.344-4,6c-3.419,2.581-6.419,5.581-9,9c-3.528,2.805-7.892,4.775-11,8c-3.225,0.775-5.909,2.091-8,4
		c-1.615-0.282-1.722,0.945-3,1c-2.821-0.398,1.172-1.464,2-2c0.745-0.482,1.429-1.674,2-2c1.32-0.753,2.606-0.287,4-1
		c0.713-0.365,1.39-1.603,2-2c3.241-2.111,7.479-4.307,10-7c0.734-0.784,0.52-0.798,1-2c0.268-0.67,0.044-1.082,1-1
		c1.714-0.479,2.732-2.49,4-4c1.197-1.427,3.465-2.858,4-5c0.476-1.903,0.839-2.008,2-4c0.389-0.667,0.444-2.259,1-3
		c0.986-1.315,1.453-0.812,2-3c0.394-1.574,2.164-4.04,3-7c0.095-0.337-0.246-1.798,0-2c2.206-1.805,1.033-1.133,2-5
		c0.229-0.915,0.365-2.301,1-5c0.862-3.665,1.785-14.234,1-21c-0.282-2.433-1.234-5.303-2-8c-0.669-2.357-1.204-5.081-2-7
		c-0.156-0.377-0.687-1.687-1-2c-0.301-0.3-1.818-0.68-2-1c-0.83-1.466-0.2-2.809-1-4c-2.098-3.125-6.176-4.854-6-9
		c-2.803,1.066-3.694-1.006-5-2c-1.19-0.906-3.462-1.7-3-4c-2.221,1.476-2.669-1.295-4-2c-0.366-0.194-1.752,0.303-2,0
		c-0.096-0.117,0.125-0.941,0-1c-0.363-0.172-1.762,0.292-2,0c-0.991-1.211-5.314-2.321-7-5c-2.016,0.625-3.441-0.503-5-1
		c-0.344-0.109-1.791,0.256-2,0c-0.096-0.117,0.125-0.941,0-1c-0.363-0.172-1.762,0.292-2,0c-0.397-0.486-2.441-1.346-5-2
		c-8.589-2.195-28.901-1.993-39,1c-2.374,0.703-4.014,2.022-6,3c-2.233,1.099-4.704,0.833-6,3c-0.333,0-0.667,0-1,0
		c-3.146,1.146-2.43-1.57-4-2c-0.282,1.615,0.945,1.722,1,3c-2.409-0.409-2.174,1.826-5,1c-2.014-2.319,0.949,0.513-1,1
		c-0.533,0.133-1.532-0.269-2,0c-0.632,0.363-1.442,1.7-2,2c-1.134,0.611-2.09,0.261-3,1c-3.104,1.563-6.558,2.775-8,6
		c-0.333,0-0.667,0-1,0c-4.613,3.72-8.884,7.782-12,13c-2.492,3.508-4.849,7.151-6,12c-1.483,0.85-2.15,2.517-2,5
		C21.78,96.114,20.672,99.339,21,104z"/>
	<path fill-rule="evenodd" clip-rule="evenodd" fill="#47508F" d="M127,21c1.862,0.138,3.342,0.658,4,2
		C129.138,22.862,127.658,22.342,127,21z"/>
	<path fill-rule="evenodd" clip-rule="evenodd" fill="#47508F" d="M152,37c1.763,0.903,3.097,2.237,4,4
		C154.237,40.097,152.903,38.763,152,37z"/>
	<path fill-rule="evenodd" clip-rule="evenodd" fill="#47508F" d="M151,156c2.581-3.419,5.581-6.419,9-9
		C157.419,150.419,154.419,153.419,151,156z"/>
	<path fill-rule="evenodd" clip-rule="evenodd" fill="#47508F" d="M65,52c-0.055-1.278-1.282-1.385-1-3c1.57,0.43,0.854,3.146,4,2
		C67.838,52.172,66.177,51.843,65,52z"/>
	<path fill-rule="evenodd" clip-rule="evenodd" fill="#47508F" d="M44,63c1.442-3.225,4.896-4.437,8-6c-0.443,0.89-0.878,1.789-2,2
		C47.322,59.656,46.198,61.864,44,63z"/>
	<path fill-rule="evenodd" clip-rule="evenodd" fill="#47508F" d="M31,76c3.116-5.218,7.387-9.28,12-13
		C39.122,67.455,35.122,71.788,31,76z"/>
	<path fill-rule="evenodd" clip-rule="evenodd" fill="#47508F" d="M25,88c-0.553,1.78-0.514,4.153-2,5
		C22.85,90.517,23.517,88.85,25,88z"/>
	<path fill-rule="evenodd" clip-rule="evenodd" fill="#47508F" d="M48,16c-3.722,3.611-9.178,5.489-12,10
		c-3.167-0.325,0.584-2.554,1-3c0.905-0.971,2.353-2.494,3-3c0.351-0.274,1.727,0.334,2,0C42.87,18.937,45.674,15.935,48,16z"/>
	<path fill-rule="evenodd" clip-rule="evenodd" fill="#47508F" d="M169,35c1.313,0.354,1.573,1.761,3,2c-0.56,2.897-1.56-1.534-3-1
		c-0.044,1.71,0.743,2.59,2,3c0.184,0.851-0.39,0.943-1,1c-1.726,2.796,1.47-3.15-3-2C167.354,36.687,168.761,36.427,169,35z"/>
	<path fill-rule="evenodd" clip-rule="evenodd" fill="#47508F" d="M174,40c-0.473,3.14,2.691,2.642,3,5
		C175.732,44.173,171.298,41.497,174,40z"/>
	<path fill-rule="evenodd" clip-rule="evenodd" fill="#9AA9CF" d="M183,61c1.975,0.691,2.666,2.667,3,5
		C184.833,64.5,183.111,63.555,183,61z"/>
	<path fill-rule="evenodd" clip-rule="evenodd" fill="#9AA9CF" d="M191,82c0.779,0.221,1.163,0.837,1,2
		c-2.295,2.039-0.362,8.305-1,12c0.638,3.695-1.295,9.962,1,12c-0.224,0.776-0.027,1.973-1,2C189.398,102.595,189.398,89.405,191,82
		z"/>
	<path fill-rule="evenodd" clip-rule="evenodd" fill="#9AA9CF" d="M190,116c0.276-1.753-2.815-4.989,0-6
		c0.224,0.776,0.027,1.973,1,2C190.83,113.496,191.357,115.69,190,116z"/>
	<path fill-rule="evenodd" clip-rule="evenodd" fill="#9AA9CF" d="M189,120c0.225-1.891-1.127-2.206-1-4c1.003-0.003,1.19,0.81,2,1
		C189.844,118.177,190.172,119.839,189,120z"/>
	<path fill-rule="evenodd" clip-rule="evenodd" fill="#47508F" d="M115,189c-8.528-0.635,4.73-0.771,1-2
		c-1.496-0.171-3.69,0.357-4-1c2.925-0.671,4.622,0.538,5,1c0.684,0.835,4.306-0.86,4,1C118.645,187.978,118.056,189.723,115,189z"
		/>
	<path fill-rule="evenodd" clip-rule="evenodd" fill="#9AA9CF" d="M78,50c2.333,0,4.667,0,7,0c0,0.333,0,0.667,0,1
		c-5.881,0.452-10.991,1.676-15,4c-1.342,0.658-1.862,2.138-2,4c-1.404-0.113-6.642,4.358-6,5c2.099,2.099-2.073-0.029,0,2
		c-0.394,1.618-0.942-0.316-2,0c-1.809,0.54,1.473,2.681-3,2c-0.09,2.729,1.666,2.013,0,4c1.163,0.163,1.779-0.221,2-1
		c0.333,0,0.667,0,1,0c-0.803,2.53-4.117,2.55-6,4c-2.576,1.09-4.806,2.527-6,5c-2.293,3.041-4.863,5.803-7,9
		c-2.365,2.302-3.2,6.133-5,9c-0.667,0-1.333,0-2,0c-0.163,1.162,0.221,1.779,1,2c0,0.333,0,0.667,0,1c-4.448-2.334-0.929-4.257,0-5
		c0.684-0.547-2.232-0.395-2-1c0.052-0.136,3.099-2.907,1-6c1.483-1.184,1.556-3.777,3-5c0.609-2.391-1.255-7.255,1-8
		c0.157,1.177-0.172,2.838,1,3c1.874-1.904,0.109-2.512,0-5c1.177-0.157,2.838,0.172,3-1c-2.909-0.87-1.125-1.497-1-4
		c1.182,0.144,2.267,1.781,3,0c-4.07-1.626,5.32-3.124,1-5c-0.319,1.158-3.095,4.71-4,2c1.953,0.845,1.411-1.55,2-2
		c0.861-0.658,2.229-0.392,3-1c0.693-0.547,1.204-1.392,2-2c0.81-0.619,1.796-0.797,2-2c1.122-0.211,1.557-1.11,2-2
		c0.91-0.739,1.866-0.389,3-1c0.558-0.3,1.368-1.637,2-2c0.468-0.269,1.467,0.133,2,0c1.949-0.487-1.014-3.319,1-1
		c2.826,0.826,2.591-1.409,5-1c1.177-0.157,2.838,0.172,3-1c0.333,0,0.667,0,1,0c1.667,0,3.333,0,5,0
		C75.583,50.917,77.814,51.481,78,50z"/>
	<path fill-rule="evenodd" clip-rule="evenodd" fill="#9AA9CF" d="M125,171c0.613-1.386,3.85-0.15,4-2c1.278-0.055,1.385-1.282,3-1
		c2.483,1.301,4.15-2.934,5,0c-0.602,1.287-2.239,1.335-4,2c-1.517,0.573-3.558,1.604-5,2c-1.182,0.325-4.317,1.369-5,0
		C123.776,171.776,124.973,171.973,125,171z"/>
	<path fill-rule="evenodd" clip-rule="evenodd" fill="#9AA9CF" d="M172,65c3.412-2.276-4.562-3.874-1-6c1.22,0.113,2.367,0.299,2,2
		c1.122,0.102,1.557-1.454,2,0c-1.063,1.222-1.909,4.677,0,4c0.443-0.157-0.148-2.467,1-2c0.225,1.891-1.127,2.207-1,4
		c1.44,2.212,2.44-1.259,3,1c-0.461,1.77,1.414,2.653,2,4c0.365,0.839-0.283,2.126,0,3c0.126,0.388,1.776,1.488,2,2
		c1.223,2.793,0.488,5.493,1,8c0.022,0.108,0.828,0.312,1,1c1.092,4.366,0.934,7.481,0,11c0.798,1.869,1.671,3.662,2,6
		c0.121,1.01-0.957,1.183-1,2c-0.049,0.922-0.929,0.737-1,1c-0.555,2.059,0.403,3.812,0,6c-0.013,0.068-0.836,0.342-1,1
		c-0.318,1.272-0.264,1.264-1,2c-0.552,0.552,0.243,3.211,0,4c-0.064,0.21-1.825,0.708-2,1c-0.271,0.453,0.131,1.478,0,2
		c-0.429,1.715-1.711,3.484-1,6c-2.479-0.073-0.335,2.492-2,4c-0.287,0.26-1.805-0.312-2,0c-0.44,0.703,0.312,2.222,0,3
		c-0.132,0.329-1.648,1.437-2,2c-0.668,1.069-1.263,1.157-2,2c-0.319,0.365,0.34,1.66,0,2c-0.254,0.254-1.838-0.297-2,0
		c-0.518,0.951,1.168,2.794,1,3c-0.379,0.465-2.48-1.847-3,0c0,1,0,2,0,3c-1.676,0.933-3.111,2.434-4,3c-1.635,1.042-1.139,1.09-2,3
		c-0.14,0.309-1.751,0.654-2,1c-1.951,2.715-0.716,3.146-4,2c1.44,4.867-4.226,3.124-4,3c-1.323,0.726-1.893,2.997-4,4
		c-1.454,0.692-2.536,0.434-4,1c0.396,3.329-5.389,5.581-6,2c1.721,0.054,2.563-0.77,3-2c3.108-3.225,7.472-5.195,11-8
		c3.419-2.581,6.419-5.581,9-9c0.833-2.656,3.044-4.446,4-6c0.483-0.786,1.955-2.146,2-3c0.065-1.24,2.4-3.509,3-4
		c0.308-0.252-0.203-1.634,0-2c0.316-0.568,1.692-1.322,2-2c1.46-3.223,2.259-9.575,4-11c0.27-0.221-0.133-1.647,0-2
		c1.074-2.849,2.143-5.895,2-9c1.357-0.31,0.83-2.504,1-4c0-0.667,0-1.333,0-2c2.209-0.125,0.425-4.242,1-6
		c-0.575-1.758,1.209-5.875-1-6C176.752,80.915,174.697,72.636,172,65z"/>
	<path fill-rule="evenodd" clip-rule="evenodd" fill="#9AA9CF" d="M168,54c-2.953-1.433,2.32-0.767,1,2
		C168.224,57.824,167.925,55.401,168,54z"/>
	<path fill-rule="evenodd" clip-rule="evenodd" fill="#47508F" d="M69,51c1.296-2.167,3.767-1.901,6-3c1.986-0.978,3.626-2.297,6-3
		c10.099-2.993,30.411-3.195,39-1c2.559,0.654,4.603,1.514,5,2c0.238,0.292,1.637-0.172,2,0c0.125,0.059-0.096,0.883,0,1
		c0.209,0.256,1.656-0.109,2,0c1.559,0.497,2.984,1.625,5,1c1.686,2.679,6.009,3.789,7,5c0.238,0.292,1.637-0.172,2,0
		c0.125,0.059-0.096,0.883,0,1c0.248,0.303,1.634-0.194,2,0c1.331,0.705,1.779,3.476,4,2c-0.462,2.3,1.81,3.094,3,4
		c1.306,0.994,2.197,3.066,5,2c-0.176,4.146,3.902,5.875,6,9c0.8,1.191,0.17,2.534,1,4c0.182,0.32,1.699,0.7,2,1
		c0.313,0.313,0.844,1.623,1,2c0.796,1.919,1.331,4.643,2,7c0.766,2.697,1.718,5.567,2,8c0.785,6.766-0.138,17.335-1,21
		c-0.635,2.699-0.771,4.085-1,5c-0.967,3.867,0.206,3.195-2,5c-0.246,0.202,0.095,1.663,0,2c-0.836,2.96-2.606,5.426-3,7
		c-0.547,2.188-1.014,1.685-2,3c-0.556,0.741-0.611,2.333-1,3c-1.161,1.992-1.524,2.097-2,4c-0.535,2.142-2.803,3.573-4,5
		c-1.268,1.51-2.286,3.521-4,4c-0.956-0.082-0.732,0.33-1,1c-0.48,1.202-0.266,1.216-1,2c-2.521,2.693-6.759,4.889-10,7
		c-0.61,0.397-1.287,1.635-2,2c-1.394,0.713-2.68,0.247-4,1c-0.571,0.326-1.255,1.518-2,2c-0.828,0.536-4.821,1.602-2,2
		c-0.15,1.85-3.387,0.614-4,2c-13.973,4.533-30.35,5.391-41,3c-3.085-0.692-6.878-0.629-8-2c-0.221-0.27-1.647,0.133-2,0
		c-2.982-1.124-6.625-1.891-9-3c-0.509-0.237-1.406-1.681-2-2c-1.104-0.594-2.114-0.452-3-1c-0.6-0.371-1.336-1.587-2-2
		c-0.825-0.513-2.179-0.359-3-1c-1.41-1.102-2.553-3.531-4-5c-1.739-1.766-3.634-3.229-5-5c-8.514-11.035-16.108-28.7-12-47
		c0.67-2.987,0.417-2.77,1-5c0-0.333,0-0.667,0-1c0.973-0.027,0.776-1.224,1-2c1.8-2.867,2.635-6.698,5-9
		c0.443,1.454,0.878-0.102,2,0c0.747-1.069,0.955-2.765,2-4c1.678-1.983,3.663-2.562,6-5c0.65-0.678,1.241-2.534,2-3
		c1.43-0.877,3.273,0.205,4-1c0.926-0.758,2.372-2.593,4-3c0.562-0.141,1.487,0.256,2,0c1.029-0.514,0.271-1.484,1-2
		c0.686-0.485,4.994,1.391,4-2c2.643,0.681,3.816,0.91,8,0c0.838-0.182,0.98-0.927,2-1c5.576-0.399,12.09,0.729,16,0
		c0.065,1.397,1.949,0.55,3,1c0.516,0.221,1.61,1.874,2,2c2.312,0.751,4.457,0.232,7,1c0.252,3.415,5.297,2.036,6,5
		c-2.826,0.826-2.591-1.409-5-1c-0.31-1.357-2.504-0.83-4-1c0.283-2.072-2.954-0.722-4-2c-1.04-1.271-2.035-0.538-4-1
		c-0.838-0.197-0.991-0.869-2-1c-1.637-0.213-3.367,0.238-5,0c-3.109-0.453-3.883-0.919-9,0c-1.692,0.304-2.253,0.604-4,1
		c-1.639,0.372-0.91,1.09-2,0c-0.736-0.736-8.511,3.974-9,4c-0.059,0.003-5.041,0.912-2,2c-0.315,1.724-1.046-0.454-2,0
		c-0.971,0.462-1.164,1.302-3,3c-0.555,0.513,0.162,0.939-1,1c-1.587,0.083-2.32,2.29-3,3c-1.024,1.069-2.211,3.341-1,5
		c-1.479,0.521-2.521,1.479-4,2c0.565,3.175-1.995,5.972-3,9c-0.734,2.211-1.103,4.756-2,7c-0.143,0.355,0.275,1.774,0,2
		c-1.177,0.963-0.741,2.039-1,4c-0.399,3.021-0.949,8.912,0,15c0.409,2.619,1.845,4.266,2,7c0.113,1.991,0.213,2.766,1,4
		c0.304,0.478,0.833,3.901,2,5c0.19-1.135,1.003-0.556,1,0c-3.279,0.527,0.346,3.146,1,4c0.456,0.596,0.44,2.429,1,3
		c1.459,1.488,4.26,1.845,5,3c0.429,1.904,2.154,2.513,2,5c0.854,0.643,3.352,0.208,4,1c0.675,0.824,1.163,2.903,3,3
		c1.441,0.076,2.162,1.903,4,2c1.283,0.067,1.272,1.454,2,2c0.355,0.267,1.729-0.332,2,0c1.082,1.321,2.056,0.408,4,1
		c0.498,0.151,1.659,1.908,2,2c2.253,0.604,5.888,0.155,8,1c0.356,0.143,1.775-0.275,2,0c1.049,1.282,1.253-0.25,5,0
		c-0.11-0.008,0.367,0.967,1,1c3.307,0.174,6.337-0.644,10-1c1.783-0.174,4.34,0.303,6,0c0.117-0.021,0.192-0.957,1-1
		c1.227-0.064,2.817,0.312,4,0c0.255-0.067,0.085-0.952,1-1c1.783-0.094,7.707-1.517,10-3c0.555-0.358-0.155-0.939,1-1
		c1.122-0.059,3.276-0.996,5-2c0.537-0.313-0.141-0.939,1-1c0.095-0.005,2.602-0.751,3-1c1.331-0.832,2.297-2.635,4-4
		c0.784-0.629,2.112-0.335,3-1c0.559-0.419,0.494-1.55,1-2c2.463-2.192,6.14-4.641,8-7c0.664-0.843,0.412-2.177,1-3
		c0.608-0.852,1.38-1.083,2-2c0.666-0.984,0.241-2.185,1-3c0.318-0.342,1.792-0.646,2-1c0.898-1.528,1.08-4.295,2-6
		c0.225-0.416-0.323-1.677,0-2c0.833-0.833,3.254-0.079,3-2c-0.354-1.567-1.761,0.875-2-1c1.357-0.31,0.829-2.504,1-4
		c0.609-5.342,1.04-12.28-1-19c-0.394-1.296-1.416-0.174-2-1c-0.699-0.988-0.2-4.087-1-6c-0.185-0.44-0.944,0.062-1-1
		c-0.093-1.758-2.459-5.941-4-8c-1.004-1.342-1.803-2.122-3-4c-0.301-0.472-0.848-0.742-1-1c-1.298-2.191-1.553-2.884-4-5
		c-0.282-0.244-0.734-1.88-1-2c-0.447-0.202-1.644,0.315-2,0c-1.954-1.725-2.684-4.346-5-5c-1.484,0.437,0.395,1.28,0,3
		c-1.827-1.506-2.353-4.314-4-6c-1.78,0.598-4.153-2.931-5,0c-1.567-0.354,0.875-1.761-1-2c-0.629-0.366-1.396-2.825-2-3
		c-1.351-0.392,0.712,2.325-1,2c-0.81-0.19-0.997-1.003-2-1c-3.063-2.398,0.717-4.72-4-3c-0.099-1.822-1.727-1.272-3-2
		c-0.911-0.521-1.307-1.571-2-2c-0.886-0.548-1.896-0.406-3-1c-0.565-0.304-1.522-1.794-2-2c-0.553-0.238-1.412,0.147-2,0
		c-0.882-0.22-1.715-0.679-3-1c-0.933-0.233-4.527-2.471-8-2c-0.31-1.357-2.504-0.83-4-1c-0.667,0-1.333,0-2,0
		c-0.31-1.357-2.504-0.83-4-1c-2.333,0-4.667,0-7,0c-1.583,0.083-3.814-0.481-4,1C72.333,51,70.667,51,69,51z"/>
	<path fill-rule="evenodd" clip-rule="evenodd" fill="#1C174A" d="M41,89c2.137-3.197,4.707-5.959,7-9c1.882-1.785,4.629-2.705,6-5
		c1.883-1.45,5.197-1.47,6-4c0.81-0.19,0.997-1.003,2-1c1.78-0.553,4.153-0.514,5-2c6.242-2.424,13.879-3.454,23-3
		c-0.168,2.168,3.547,0.453,5,1c5.778,0.888,9.784,3.55,15,5c0.437,1.23,1.279,2.054,3,2c0.789,2.211,3.497,2.502,5,4
		c-0.286,1.763,4.709,3.097,2,4c-2.101-1.899-5.123-2.876-8-4c-0.703-2.964-5.748-1.585-6-5c-2.543-0.768-4.688-0.249-7-1
		c-0.39-0.126-1.484-1.779-2-2c-1.051-0.45-2.935,0.397-3-1c-3.91,0.729-10.424-0.399-16,0c-1.02,0.073-1.162,0.818-2,1
		c-4.184,0.91-5.357,0.681-8,0c0.994,3.391-3.314,1.515-4,2c-0.729,0.516,0.029,1.486-1,2c-0.513,0.256-1.438-0.141-2,0
		c-1.628,0.407-3.074,2.242-4,3c-0.727,1.205-2.57,0.123-4,1c-0.759,0.466-1.35,2.322-2,3c-2.337,2.438-4.322,3.017-6,5
		c-1.045,1.235-1.253,2.931-2,4C41.878,88.898,41.443,90.454,41,89z"/>
	<path fill-rule="evenodd" clip-rule="evenodd" fill="#7280B4" d="M124,66c1.712,0.325-0.351-2.392,1-2c0.604,0.175,1.371,2.634,2,3
		c1.875,0.239-0.567,1.646,1,2c0.847-2.931,3.22,0.598,5,0c1.647,1.686,2.173,4.494,4,6c0.395-1.72-1.484-2.563,0-3
		c2.316,0.654,3.046,3.275,5,5c0.356,0.315,1.553-0.202,2,0c0.266,0.12,0.718,1.756,1,2c2.447,2.116,2.702,2.809,4,5
		c0.152,0.258,0.699,0.528,1,1c1.197,1.878,1.996,2.658,3,4c1.541,2.059,3.907,6.242,4,8c0.056,1.062,0.815,0.56,1,1
		c0.8,1.913,0.301,5.012,1,6c0.584,0.826,1.606-0.296,2,1c2.04,6.72,1.609,13.658,1,19c-0.171,1.496,0.357,3.69-1,4
		c0.239,1.875,1.646-0.567,2,1c0.254,1.921-2.167,1.167-3,2c-0.323,0.323,0.225,1.584,0,2c-0.92,1.705-1.102,4.472-2,6
		c-0.208,0.354-1.682,0.658-2,1c-0.759,0.815-0.334,2.016-1,3c-0.62,0.917-1.392,1.148-2,2c-0.588,0.823-0.336,2.157-1,3
		c-1.86,2.359-5.537,4.808-8,7c-0.506,0.45-0.441,1.581-1,2c-0.888,0.665-2.216,0.371-3,1c-1.703,1.365-2.669,3.168-4,4
		c-0.398,0.249-2.905,0.995-3,1c-1.141,0.061-0.463,0.687-1,1c-1.724,1.004-3.878,1.941-5,2c-1.155,0.061-0.445,0.642-1,1
		c-2.293,1.483-8.217,2.906-10,3c-0.915,0.048-0.745,0.933-1,1c-1.183,0.312-2.773-0.064-4,0c-0.808,0.043-0.883,0.979-1,1
		c-1.66,0.303-4.217-0.174-6,0c-3.663,0.356-6.693,1.174-10,1c-0.633-0.033-1.11-1.008-1-1c-3.747-0.25-3.951,1.282-5,0
		c-0.225-0.275-1.644,0.143-2,0c-2.112-0.845-5.747-0.396-8-1c-0.341-0.092-1.502-1.849-2-2c-1.944-0.592-2.918,0.321-4-1
		c-0.271-0.332-1.645,0.267-2,0c-0.728-0.546-0.717-1.933-2-2c-1.838-0.097-2.559-1.924-4-2c-1.837-0.097-2.325-2.176-3-3
		c-0.648-0.792-3.146-0.357-4-1c0.154-2.487-1.571-3.096-2-5c-0.74-1.155-3.541-1.512-5-3c-0.56-0.571-0.544-2.404-1-3
		c-0.654-0.854-4.279-3.473-1-4c0.003-0.556-0.81-1.135-1,0c-1.167-1.099-1.696-4.522-2-5c-0.787-1.234-0.887-2.009-1-4
		c-0.155-2.734-1.591-4.381-2-7c-0.949-6.088-0.399-11.979,0-15c0.259-1.961-0.177-3.037,1-4c0.275-0.226-0.143-1.645,0-2
		c0.897-2.244,1.266-4.789,2-7c1.005-3.028,3.565-5.825,3-9c1.479-0.521,2.521-1.479,4-2c-1.211-1.659-0.024-3.931,1-5
		c0.68-0.71,1.413-2.917,3-3c1.162-0.061,0.445-0.487,1-1c1.836-1.698,2.029-2.538,3-3c0.954-0.454,1.685,1.724,2,0
		c-3.041-1.088,1.941-1.997,2-2c0.489-0.026,8.264-4.736,9-4c1.09,1.09,0.361,0.372,2,0c1.747-0.396,2.308-0.696,4-1
		c5.117-0.919,5.891-0.453,9,0c1.633,0.238,3.363-0.213,5,0c1.009,0.131,1.162,0.803,2,1c1.965,0.462,2.96-0.271,4,1
		c1.046,1.278,4.283-0.072,4,2c-3.333,0-6.667,0-10,0c-1.583,0.083-3.814-0.481-4,1c-0.851-0.184-0.943,0.39-1,1
		c-2.09-0.423-2.648,0.686-4,1c-0.333,0-0.667,0-1,0c-3.141-0.474-4.086,1.247-5,3c-1.768,0.898-2.919,2.414-5,3
		c-2.092,1.242-3.758,2.908-5,5c0.524,2.056-1.377,2.134-2,3c-0.675,0.939-0.734,2.639-2,3c0.163,1.163-0.221,1.779-1,2
		c-0.443-1.454-0.878,0.102-2,0c0.567,2.348-1.261,3.895-2,6c-0.208,0.593,0.153,1.389,0,2c-0.238,0.951-1.721,2.18-2,4
		c-0.865,5.633-0.633,13.472,1,18c0.444,1.23,1.422,1.762,2,3c1.142,2.447,1.041,4.561,3,7c1.364,1.698,3.395,3.58,5,6
		c0.37,0.558,0.939-0.158,1,1c0.016,0.295,1.729,1.74,2,2c-0.101-0.096,2.354,2.613,3,3c1.568,0.939,4.604-0.434,5,2
		c1.163,0.163,1.779-0.221,2-1c6.506,1.494,11.259,4.741,20,4c3.486,4.135-9.425,1.315-12,1c-1.583-0.193-3.461,0.396-5,0
		c-0.245-0.063-0.093-0.952-1-1c-1.278-0.067-1.266-1.676-2-2c-2.779-1.228-5.401-0.067-7-1c-0.416-2.461-3.579-2.857-5-4
		c-0.565-0.454,0.167-0.938-1-1c-1.345-0.07-0.299-1.399-1-2c-0.719-0.616-2.563-0.562-2,0c-3.396-3.391-3-6.126-7-9
		c-2.144,2.051-0.521,4.76,2,5c-0.963,4.963,2.667,5.334,3,9c2.039,1.745,1.961-0.745,4,1c-0.027,0.973-1.224,0.776-2,1
		c0.842,0.75,2.171,1.262,3,2c1.393,1.241,4.133,4.048,5,7c1.784-0.672,2.356,0.6,3,1c1.948,1.211,2.945,1.919,7,3
		c2.2,0.587,3.411,1.689,6,2c2.12,0.255,3.218,0.025,5,1c0.523,0.286-0.079,0.851,1,1c4.62,0.639,11.486,0.324,15-1
		c0.353-0.133,1.779,0.27,2,0c0.669-0.817,0.764-0.69,2-1c-0.038,0.01,2.93-0.915,3-1c1.14-1.393,5.728-1.485,8-3
		c1.318-0.879,4.062-2.415,6-4c0.721-0.59,1.351-1.492,2-2c1.699-1.328,3.802-1.717,5-3c1.164-1.246,2.084-3.691,3-5
		c1.076-1.537,1.604-4.046,4-4c0-1.667,0-3.333,0-5c2.746,1.044,0.784-3.005,2-4c2.375-1.943,2.901-14.323,2-21
		c-0.967-7.16-5.058-12.531-6-17c0.302-1.206-1.636-0.485-2-1c-0.908-1.285,0.087-3.375-2-4c-1.094-2.239-1.656-5.011-3-7
		c-0.138-1.862-0.658-3.342-2-4c0.729-2.729-1.987-2.013-2-4c-1.136-2.198-3.345-3.322-4-6C127.323,68.677,124.677,68.323,124,66z"
		/>
	<path fill-rule="evenodd" clip-rule="evenodd" fill="#7280B4" d="M118,62c4.717-1.72,0.937,0.602,4,3c-1.479-0.521-2.521-1.479-4-2
		C118,62.667,118,62.333,118,62z"/>
	<path fill-rule="evenodd" clip-rule="evenodd" fill="#D3DEEF" d="M85,51c1.333,0,2.667,0,4,0c0.667,0,1.333,0,2,0
		c0.31,1.357,2.504,0.83,4,1c3.473-0.471,7.067,1.767,8,2c1.285,0.321,2.118,0.78,3,1c0.588,0.147,1.447-0.238,2,0
		c0.478,0.206,1.435,1.696,2,2c1.104,0.594,2.114,0.452,3,1c0.693,0.429,1.089,1.479,2,2c1.273,0.728,2.901,0.178,3,2
		c0,0.333,0,0.667,0,1c1.479,0.521,2.521,1.479,4,2c1.577,2.422,3.577,4.422,6,6c0.655,2.678,2.864,3.802,4,6
		c-2.711-0.622-2.489-4.178-6-4c-1.2-1.313-0.39-1.573,0-3c-1.226-0.319-6.177,0.161-3,1c-0.013,2.35-2.729-0.365-2-2
		c-3.249,1.154-6.151-3.055-8,0c-1.791,0.198,0.542-1.714,0-2c-0.483-0.255-4.251,1.171-3,4c-5.216-1.45-9.222-4.112-15-5
		c0.168-2.168-3.547-0.453-5-1c-9.121-0.454-16.758,0.576-23,3c-2.48-0.147-4.853-0.186-5,2c-1.003-0.003-1.19,0.81-2,1
		c-0.333,0-0.667,0-1,0c-0.221,0.779-0.837,1.163-2,1c1.666-1.987-0.09-1.271,0-4c4.473,0.681,1.191-1.46,3-2
		c1.058-0.316,1.606,1.618,2,0c-2.073-2.029,2.099,0.099,0-2c-0.642-0.642,4.596-5.113,6-5c0.138-1.862,0.658-3.342,2-4
		C74.009,52.676,79.119,51.452,85,51z M109,67c-0.663-0.663-4.321,0.273-4,1C106.348,69.875,109.428,67.427,109,67z"/>
	<path fill-rule="evenodd" clip-rule="evenodd" fill="#7280B4" d="M48,80c1.194-2.473,3.424-3.91,6-5
		C52.629,77.295,49.882,78.215,48,80z"/>
	<path fill-rule="evenodd" clip-rule="evenodd" fill="#9AA9CF" d="M128,71c-2.423-1.578-4.423-3.578-6-6c1.003-0.003,1.19,0.81,2,1
		C124.677,68.323,127.323,68.677,128,71z"/>
	<path fill-rule="evenodd" clip-rule="evenodd" fill="#9AA9CF" d="M62,70c0.147-2.186,2.52-2.147,5-2
		C66.153,69.486,63.78,69.447,62,70z"/>
	<path fill-rule="evenodd" clip-rule="evenodd" fill="#7280B4" d="M118,77c1.313,0.353,1.573,1.761,3,2c0.311,2.422,6.154,4.422,4,6
		c-1.834-1.167-3.386-2.614-5-4C122.709,80.097,117.714,78.763,118,77z"/>
	<path fill-rule="evenodd" clip-rule="evenodd" fill="#D3DEEF" d="M134,81c1.342,0.658,1.862,2.138,2,4
		C134.739,83.081,132.263,82.979,134,81z"/>
	<path fill-rule="evenodd" clip-rule="evenodd" fill="#D3DEEF" d="M141,114c0.155,3.822-0.052,7.281-2,9
		C140.064,120.064,139.359,114.204,141,114z"/>
	<path fill-rule="evenodd" clip-rule="evenodd" fill="#9AA9CF" d="M120,136c2.039-0.294,1.961-2.706,4-3
		c-1.241,2.092-2.908,3.759-5,5C119.19,137.19,120.003,137.003,120,136z"/>
	<path fill-rule="evenodd" clip-rule="evenodd" fill="#7280B4" d="M123,93c-1.173-1.494-4.155-1.178-4-4
		C120.763,89.903,122.097,91.237,123,93z"/>
	<path fill-rule="evenodd" clip-rule="evenodd" fill="#D3DEEF" d="M78,81c1.496-1.171,4.09-1.243,5-3c0.333,0,0.667,0,1,0
		c0.012,1.322,1.753,0.914,2,2c-2.48-0.147-4.853-0.186-5,2c1.496,0.17,3.69-0.357,4,1c-2.863,1.407-5.458-3.103-5,1
		c2.333,0,4.667,0,7,0c-0.027,0.973-1.224,0.776-2,1c-2.081,0.586-3.232,2.102-5,3c-0.81,0.19-0.997,1.003-2,1
		c0.319-2.348,3.095-2.238,4-4c-3.1-0.1-5.547,0.453-7,2c3.834-0.182,0.363,0.818,1,3c-0.857,4.81-6.136,5.197-6,11
		c-2.291,1.709-2.365,5.636-3,9c-0.226,5.226,0.017,9.983,1,14c2.236-0.431,0.405-4.929,1-7c0-0.667,0-1.333,0-2
		c2.715,0.716-0.715-4.716,2-4c2.09-0.424,2.648,0.686,4,1c-0.839,1.161-1.319,2.681-1,5c-0.333,0-0.667,0-1,0
		c-0.419,4.753,1.454,7.213,2,11c3.13-1.98,1.49,1.538,4,3c-0.461-0.269,1.551-1.168,2-1c0.446,0.167,0.659,1.866,1,2
		c1.153,0.453,4.558,0.975,5,1c0.787,0.046,2.25,0.227,3,0c0.543-0.164,1.021-1.004,1-1c1.193-0.213,2.876,0.431,4,0
		c0.408-0.156-0.035-0.945,1-1c-0.318,0.017,7.282-3.563,2-3c2.659-2.007,4.993-4.341,7-7c1.879,3.698-2.842,6.998-3,10
		c-0.068,1.306-1.351,0.351-2,1c-0.312,0.312,0.337,1.728,0,2c-0.348,0.28-1.726-0.336-2,0c-0.208,0.254-0.76,1.873-1,2
		c-0.783,0.416-2.181-0.351-3,0c-0.424,0.182-0.003,0.865-1,1c-3.399,0.458-6.9-0.428-10-2c2.533,3.503,9.821,4.005,14,3
		c0.762-0.184,1.011-0.108,1-1c0.667,0,1.333,0,2,0c0.417,1.177-1.779,0.521-2,1c-0.876,1.905,5.498,4.889,7,3c0,0.333,0,0.667,0,1
		c-3.575,0.425-5.336,2.664-10,2c1.5,2.034,9.795,0.938,13,0c0.787-0.23,2.783-0.468,4-1c0.658-0.288,1.453-1.718,2-2
		c0.264-0.136,0.723,0.108,1,0c0.319,1.158,3.095,4.71,4,2c-2.333-0.294-2.333-2.706,0-3c0.012,1.321,1.753,0.914,2,2
		c-1.009,0.012-1.258,1.753,0,2c0.369-3.964,2.899-5.768,6-7c2.279-1.373,3.759,2.578,4,0c-1.089,0.343-0.771-1.833,0-2
		c0.479-0.104,1.888,1.131,2,1c0.565-0.654,0.684-3.418,1-4c0.074-0.137,0.871,0.105,1,0c0.811-0.663,0.115-3.363,2-3
		c1.128,2.186-1.898,4.062-2,6c-0.068,1.293-1.496,1.256-2,2c-1.746,2.578-2.928,5.156-5,7c-0.85,0.756-2.837,1.194-4,2
		c-0.358,0.248-0.684,1.857-1,2c-2.498,1.126-4.335,1.301-7,3c-0.979,0.624-1.571,0.643-3,1c-2.163,0.541-7.145,2.462-12,2
		c-8.741,0.741-13.494-2.506-20-4c-2.555-0.111-3.5-1.833-5-3c-0.226-2.116-2.742-1.913-4-3c-2.302-1.988-3.384-5.315-6-7
		c-3.425-3.242-5.575-7.758-6-14c-0.083-1.583,0.481-3.814-1-4c0-3,0-6,0-9c1.357-0.31,0.83-2.504,1-4c-0.247-2.179-0.004-3.494,1-5
		c0.9-1.351,0.393-3.415,2-4c0.779-0.221,1.163-0.837,1-2c1.266-0.361,1.325-2.061,2-3c0.623-0.866,2.524-0.944,2-3
		c2.092-1.242,3.758-2.908,5-5C75.081,83.414,76.232,81.898,78,81z M98,141c0,0.667,0,1.333,0,2c0.667,0,1.333,0,2,0
		c0-0.667,0-1.333,0-2C99.333,141,98.667,141,98,141z M109,146c1.721,0.054,2.563-0.77,3-2C110.429,144.096,108.533,143.866,109,146
		z M126,143c0.239-1.427,1.646-1.687,2-3c-1,0-2,0-3,0C125.156,141.177,124.828,142.839,126,143z"/>
	<path fill-rule="evenodd" clip-rule="evenodd" fill="#D3DEEF" d="M121,79c-1.427-0.239-1.687-1.647-3-2
		c-1.503-1.498-4.211-1.789-5-4c3.74,1.425,5.171,2.524,8,1C120.122,76.323,120.122,76.677,121,79z"/>
	<path fill-rule="evenodd" clip-rule="evenodd" fill="#9AA9CF" d="M83,78c-0.91,1.757-3.504,1.829-5,3
		C78.914,79.247,79.859,77.526,83,78z"/>
	<path fill-rule="evenodd" clip-rule="evenodd" fill="#9AA9CF" d="M68,89c1.242-2.092,2.908-3.758,5-5
		C71.758,86.092,70.092,87.758,68,89z"/>
	<path fill-rule="evenodd" clip-rule="evenodd" fill="#47508F" d="M81,150c-0.221,0.779-0.837,1.163-2,1
		c-0.396-2.434-3.432-1.061-5-2c-0.646-0.387-3.101-3.096-3-3c-0.271-0.26-1.984-1.705-2-2c-0.061-1.158-0.63-0.442-1-1
		c-1.605-2.42-3.636-4.302-5-6c-1.959-2.439-1.858-4.553-3-7c-0.578-1.238-1.556-1.77-2-3c-1.633-4.528-1.865-12.367-1-18
		c0.279-1.82,1.762-3.049,2-4c0.153-0.611-0.208-1.407,0-2c0.739-2.105,2.567-3.652,2-6c1.122,0.102,1.557-1.454,2,0
		c-1.607,0.585-1.1,2.649-2,4c-1.004,1.506-1.247,2.821-1,5c-1.357,0.31-0.83,2.504-1,4c0,3,0,6,0,9c0.083,1.583-0.481,3.814,1,4
		c0.425,6.242,2.575,10.758,6,14c0.969,3.49,6.152,8.35,10,10C77.5,148.167,78.445,149.889,81,150z"/>
	<path fill-rule="evenodd" clip-rule="evenodd" fill="#9AA9CF" d="M140,100c0.438-3.438-0.396-5.605-1-8
		c2.087,0.625,1.092,2.715,2,4c0.364,0.515,2.302-0.206,2,1c0.942,4.469,5.033,9.84,6,17c0.901,6.677,0.375,19.057-2,21
		c-1.216,0.995,0.746,5.044-2,4c0,1.667,0,3.333,0,5c-2.396-0.046-2.924,2.463-4,4c-0.916,1.309-1.836,3.754-3,5
		c-1.198,1.283-3.301,1.672-5,3c-0.649,0.508-1.279,1.41-2,2c-1.938,1.585-4.682,3.121-6,4c-2.272,1.515-6.86,1.607-8,3
		c-0.07,0.085-3.038,1.01-3,1c-1.236,0.31-1.331,0.183-2,1c-0.221,0.27-1.647-0.133-2,0c-3.514,1.324-10.38,1.639-15,1
		c-1.079-0.149-0.477-0.714-1-1c-1.782-0.975-2.88-0.745-5-1c-2.589-0.311-3.8-1.413-6-2c-4.055-1.081-5.052-1.789-7-3
		c-0.644-0.4-1.216-1.672-3-1c-0.867-2.952-3.607-5.759-5-7c-0.829-0.738-2.158-1.25-3-2c0.776-0.224,1.973-0.027,2-1
		c-2.039-1.745-1.961,0.745-4-1c-0.333-3.666-3.963-4.037-3-9c-2.521-0.24-4.144-2.949-2-5c4,2.874,3.604,5.609,7,9
		c-0.563-0.562,1.281-0.616,2,0c0.701,0.601-0.345,1.93,1,2c1.167,0.062,0.435,0.546,1,1c1.421,1.143,4.584,1.539,5,4
		c1.599,0.933,4.221-0.228,7,1c0.734,0.324,0.722,1.933,2,2c0.907,0.048,0.755,0.937,1,1c1.539,0.396,3.417-0.193,5,0
		c2.575,0.315,15.486,3.135,12-1c4.855,0.462,9.837-1.459,12-2c1.429-0.357,2.021-0.376,3-1c2.665-1.699,4.502-1.874,7-3
		c0.316-0.143,0.642-1.752,1-2c1.163-0.806,3.15-1.244,4-2c2.072-1.844,3.254-4.422,5-7c0.504-0.744,1.932-0.707,2-2
		c0.102-1.938,3.128-3.814,2-6c0.576-2.091,2.479-2.854,2-6c1.948-1.719,2.155-5.178,2-9c0-3.333,0-6.667,0-10
		C140.917,102.417,141.48,100.186,140,100z"/>
	<path fill-rule="evenodd" clip-rule="evenodd" fill="#9AA9CF" d="M186,74c1.172,0.162,0.844,1.823,1,3c1.172-0.162,0.844-1.823,1-3
		c2.981,2.087-1.328,5.26,0,9c1.357-0.31,0.83-2.504,1-4c0.776-1.824,1.075,0.599,1,2c-2.7,7.3,0.742,20.741-2,28c0,1,0,2,0,3
		c0,0.667,0,1.333,0,2c-1.357-0.31-0.83-2.504-1-4C189.108,99.27,188.183,83.694,186,74z"/>
	<path fill-rule="evenodd" clip-rule="evenodd" fill="#9AA9CF" d="M98,137c0.011,0.892-0.238,0.816-1,1
		c-4.179,1.005-11.467,0.503-14-3c3.1,1.572,6.601,2.458,10,2c0.997-0.135,0.576-0.818,1-1c0.819-0.351,2.217,0.416,3,0
		c0.24-0.127,0.792-1.746,1-2c0.274-0.336,1.652,0.28,2,0c0.337-0.272-0.312-1.688,0-2c0.649-0.649,1.932,0.306,2-1
		c0.158-3.002,4.879-6.302,3-10c-0.184-0.851,0.39-0.943,1-1c0,2.667,0,5.333,0,8c-2.632,0.09-1.929,3.718-3,5
		c-0.272,0.326-1.731-0.328-2,0c-0.164,0.2,0.161,0.797,0,1C100.18,135.032,98.756,134.929,98,137z"/>
	<path fill-rule="evenodd" clip-rule="evenodd" fill="#7280B4" d="M66,137c2.616,1.685,3.698,5.012,6,7c1.258,1.087,3.774,0.884,4,3
		C72.152,145.35,66.969,140.49,66,137z"/>
	<path fill-rule="evenodd" clip-rule="evenodd" fill="#1C174A" d="M96,82c2,0,4,0,6,0c0.31,1.357,2.504,0.83,4,1
		c0.333,0,0.667,0,1,0c-1.814,1.79-6.711,0.422-10,0C96.187,82.896,96.028,82.831,96,82z"/>
	<path fill-rule="evenodd" clip-rule="evenodd" fill="#1C174A" d="M115,87c2.729-0.729,2.013,1.987,4,2
		c-0.155,2.822,2.827,2.506,4,4c-0.003,1.003,0.81,1.19,1,2c0.789,0.803,0.934,2.247,0,3c-0.976,0.787-0.083-5.083-2-2
		c-1.135-0.19-0.555-1.003,0-1c-0.626-0.911-1.494-0.907-2-2c-0.486-1.051-1.952-3.044-3-4C116.255,88.32,114.381,89.023,115,87z"/>
	<path fill-rule="evenodd" clip-rule="evenodd" fill="#1C174A" d="M128,103c-1.975-0.691-2.666-2.667-3-5c0.81,0.19,0.997,1.003,2,1
		C126.925,100.742,127.224,102.11,128,103z"/>
	<path fill-rule="evenodd" clip-rule="evenodd" fill="#47508F" d="M87,84c3.164,0.164,3.342-2.658,7-2c0.667,0,1.333,0,2,0
		c0.028,0.831,0.187,0.896,1,1c3.289,0.422,8.186,1.79,10,0c1.177,0.157,2.839-0.172,3,1c-5.108-0.712,1.566,4.401,2,1
		c1.721-0.054,2.563,0.77,3,2c-0.619,2.023,1.255,1.32,2,2c1.048,0.956,2.514,2.949,3,4c0.506,1.093,1.374,1.089,2,2
		c-0.555-0.003-1.135,0.81,0,1c1.917-3.083,1.024,2.787,2,2c0.934-0.753,0.789-2.197,0-3c1.464,0.87,3.17,1.497,3,4
		c-1.003,0.003-1.19-0.81-2-1c0.334,2.333,1.025,4.309,3,5c0.61,0.057,1.184,0.149,1,1c-0.667,0-1.333,0-2,0c0,0.667,0,1.333,0,2
		c1.162,0.162,1.779-0.221,2-1c2.169-0.169,0.453,3.547,1,5c0,2.333,0,4.667,0,7c0.158,7.491-3.628,11.039-6,16
		c-2.039,0.294-1.961,2.706-4,3c-5.325,2.242,1.051-1.524,2-3c0.512-0.797,1.181-3.126,2-5c0.038-0.087,0.824-3.856,1-4
		c3.711-3.036,1.702-16.761-1-21c-0.301-0.472-0.848-0.742-1-1c-0.471-0.795-0.408-2.057-1-3c-0.892-1.422-4.004-5.004-6-7
		c-1.337-1.337-5.314-3.526-9-5c-0.355-0.143-1.774,0.275-2,0c-2.115-2.585-12.953-2.354-18-1c-1.579,0.424-1.088,0.126-2,1
		c-0.812,0.777-1.665,0.666-3,1c-0.982,0.246-1.718,1.491-2,0c1.768-0.898,2.919-2.414,5-3C85.776,84.776,86.973,84.973,87,84z"/>
	<path fill-rule="evenodd" clip-rule="evenodd" fill="#7280B4" d="M80,88c0.282,1.491,1.018,0.246,2,0c1.335-0.334,2.188-0.223,3-1
		c0.912-0.874,0.421-0.576,2-1c5.047-1.354,15.885-1.585,18,1c0.226,0.275,1.645-0.143,2,0c3.686,1.474,7.663,3.663,9,5
		c1.996,1.996,5.108,5.578,6,7c0.592,0.943,0.529,2.205,1,3c0.152,0.258,0.699,0.528,1,1c2.702,4.239,4.711,17.964,1,21
		c-0.176,0.144-0.962,3.913-1,4c-0.819,1.874-1.488,4.203-2,5c-0.949,1.476-7.325,5.242-2,3c0.003,1.003-0.81,1.19-1,2
		c-2.039,0.294-1.961,2.706-4,3c-0.277,0.108-0.736-0.136-1,0c-0.547,0.282-1.342,1.712-2,2c-1.217,0.532-3.213,0.77-4,1
		c-3.205,0.938-11.5,2.034-13,0c4.664,0.664,6.425-1.575,10-2c0.666,1.594,1.906,0.391,3,0c3.012-1.076,5.699-2.647,8-5
		c0.831-0.85,1.314-0.886,2-2c0.771-1.253,1.887-1.515,3-3c0.267-0.354-0.332-1.729,0-2c0.125-0.102,0.932,0.132,1,0
		c0.747-1.444,1.342-5.354,2-7c1.067-2.67,1.562-12.096,0-16c-0.143-0.355,0.275-1.774,0-2c-0.106-0.087-0.954,0.112-1,0
		c-0.572-1.397-0.257-2.65-1-4c-0.289-0.525-0.94,0.131-1-1c-0.015-0.275-0.776-1.688-1-2c-0.249-0.346-1.86-0.691-2-1
		c-0.192-0.428,0.312-1.672,0-2c-0.788-0.83-2.037-0.278-3-1c-0.465-0.349-0.558-1.709-1-2c-1.504-0.988-3.604-1.301-5-2
		c-0.467-0.234-1.65-1.894-2-2c-0.9-0.272-2.12,0.328-3,0c-0.396-0.147,0.026-0.946-1-1c-0.645-0.034-4.016-2.203-5-1
		c-1.034,1.264-0.439-0.125-2,0c-1.607,0.129-1.703,0.771-3,1c-1.276,0.225-2.744-0.309-4,0c-5.08,1.25-10.396,4.23-14,8
		c-1.939,2.028-2.606,4.508-5,6c-0.136-5.803,5.143-6.19,6-11c0.81-0.19,0.997-1.003,2-1C79.003,89.003,79.19,88.19,80,88z"/>
	<path fill-rule="evenodd" clip-rule="evenodd" fill="#D3DEEF" d="M74,104c4.629-3.037,7.432-7.901,15-8
		c-0.125-2.208-4.242-0.425-6-1c0.3-2.222,2.228-2.112,4-3c0.365-0.183,1.757,0.297,2,0c0.707-0.864,0.708-1.681,2-2
		c4.012-0.99,10.62-0.828,14,0c1.809,0.443,2.743,1.7,5,3c1.085,0.625,2.015,0.453,3,1c0.527,0.293-0.133,0.94,1,1
		c1.028,0.054,1.408,2.365,2,3c0.417,0.448,1.64,0.54,2,1c0.611,0.78,0.341,2.122,1,3c0.986,1.315,1.453,0.812,2,3
		c-0.01-0.038,0.915,2.93,1,3c1.178,0.963,0.741,2.039,1,4c0.195,1.477,0.968,1.817,1,3c0.06,2.214-0.781,2.5-1,4
		c-0.227,1.557,0.452,3.501,0,5c-0.094,0.31-0.949,0.042-1,1c-0.076,1.441-1.903,2.162-2,4c-0.04,0.756-5.031,8.518-7,8
		c-0.181-0.048-0.058-1.446-1-1c-0.862,0.409-1.275,2.373-2,3c-0.613,0.53-1.277,0.539-2,1c-0.662,0.422-1.115,0.817-2,1
		c0.541-2.832,3.415-2.354,5-4c0.276-0.287,1.038-2.563,2-4c0.798-1.191,2.598-2.251,3-3c0.264-0.491-0.137-1.452,0-2
		c0.194-0.778,0.94-0.776,1-1c1.48-5.597,0.297-14.325-2-18c-0.344-0.55-0.939,0.151-1-1c-0.207-3.94-7.172-7.56-11-10
		c-1.238-0.789-2.099-0.587-4-1c-0.84-0.183-0.988-0.881-2-1c-8.403-0.991-16.633,2.376-22,9c0.353,1.401,1.761,0.086,2-1
		c2.683,2.971-3.017,2.133-4,3C73.529,106.195,74.043,105.377,74,104z"/>
	<path fill-rule="evenodd" clip-rule="evenodd" fill="#9AA9CF" d="M104,133c1.313-0.354,1.573-1.761,3-2
		c-0.903,1.763-2.237,3.097-4,4C103.19,134.19,104.003,134.003,104,133z"/>
	<path fill-rule="evenodd" clip-rule="evenodd" fill="#9AA9CF" d="M106,110c-2.306,0.306-1.111-2.889-3-3
		c1.562-3.073,3.48,1.737,4,3C106.667,110,106.333,110,106,110z"/>
	<path fill-rule="evenodd" clip-rule="evenodd" fill="#9AA9CF" d="M80,123c1.763,0.903,3.097,2.237,4,4
		C82.237,126.097,80.903,124.763,80,123z"/>
	<path fill-rule="evenodd" clip-rule="evenodd" fill="#D3DEEF" d="M80,108c-0.534-1.44,3.897-2.44,1-3
		C83.99,101.754,82.68,108.376,80,108z"/>
	<path fill-rule="evenodd" clip-rule="evenodd" fill="#7280B4" d="M73,107c0,0.333,0,0.667,0,1c-0.89,0.443-1.789,0.878-2,2
		c0,0.333,0,0.667,0,1c-2.715-0.716,0.715,4.716-2,4c0.276-5.475-2.816,2.2,0,2c-0.595,2.071,1.236,6.569-1,7
		c-0.983-4.017-1.226-8.774-1-14c1.23-0.437,2.054-1.279,2-3c3.729,1.062,1.583-3.75,5-3C74.043,105.377,73.529,106.195,73,107z"/>
	<path fill-rule="evenodd" clip-rule="evenodd" fill="#7280B4" d="M78,108c0.56-1.44,1.56-2.44,3-3c2.897,0.56-1.534,1.56-1,3
		c-0.333,0-0.667,0-1,0S78.333,108,78,108z"/>
	<path fill-rule="evenodd" clip-rule="evenodd" fill="#D3DEEF" d="M71,110c0.211-1.122,1.11-1.557,2-2
		C75.71,110.509,72.158,108.702,71,110z"/>
	<path fill-rule="evenodd" clip-rule="evenodd" fill="#D3DEEF" d="M75,111c-2.114-0.309,1.05-3.473,3-3
		c-0.354,1.313-1.761,1.573-2,3C75.667,111,75.333,111,75,111z"/>
	<path fill-rule="evenodd" clip-rule="evenodd" fill="#7280B4" d="M74,117c-0.319-2.319,0.161-3.839,1-5c0-0.333,0-0.667,0-1
		c0.333,0,0.667,0,1,0c0.075,4.2-0.445,7.932,1,11c0.514,1.091,1.469,1.204,2,2c0.644,0.966,0.195,2.265,1,3
		c0.911,0.832,3.195,0.081,3,2c1.419,0.086,2.832,0.165,3-1c2.356-0.022,2.944,1.723,6,1c3.191,3.485-5.184,1.467-8,2
		C79.581,127.419,74.524,124.476,74,117z"/>
	<path fill-rule="evenodd" clip-rule="evenodd" fill="#47508F" d="M107,110c1.623,1.71,3.027,3.64,3,7c0,2.333,0,4.667,0,7
		c-0.357,2.977-1.593,5.074-3,7c-1.427,0.239-1.687,1.646-3,2c3.093-4.242,4.099-9.683,3-16c-0.27-1.551,0.622-3.839-1-4
		c0-1,0-2,0-3C106.333,110,106.667,110,107,110z"/>
	<path fill-rule="evenodd" clip-rule="evenodd" fill="#7280B4" d="M106,113c1.622,0.161,0.73,2.449,1,4
		c1.099,6.317,0.093,11.758-3,16c0.003,1.003-0.81,1.19-1,2c-1.427,0.239-1.687,1.646-3,2c-0.667,0-1.333,0-2,0
		c0.756-2.071,2.18-1.968,3-3c0.161-0.203-0.164-0.8,0-1c0.269-0.328,1.728,0.326,2,0c1.071-1.282,0.368-4.91,3-5
		c0-2.667,0-5.333,0-8C106,117.667,106,115.333,106,113z"/>
	<path fill-rule="evenodd" clip-rule="evenodd" fill="#9AA9CF" d="M185,120c2.315-2.288-0.34,3.117,0,5
		C182.069,124.153,185.598,121.78,185,120z"/>
	<path fill-rule="evenodd" clip-rule="evenodd" fill="#9AA9CF" d="M181,132c2.135-2.468-0.281,3.175-1,4
		C177.865,138.468,180.281,132.825,181,132z"/>
	<path fill-rule="evenodd" clip-rule="evenodd" fill="#1C174A" d="M44,175c-1.182-0.485-2.267-1.066-3-2
		c0.221-0.779,0.837-1.163,2-1C42.466,173.44,46.897,174.44,44,175z"/>
	<path fill-rule="evenodd" clip-rule="evenodd" fill="#47508F" d="M113,2c1.496,0.17,3.69-0.357,4,1
		C115.504,2.83,113.31,3.357,113,2z"/>
	<path fill-rule="evenodd" clip-rule="evenodd" fill="#7280B4" d="M91,51c1.496,0.17,3.69-0.357,4,1
		C93.504,51.83,91.31,52.357,91,51z"/>
	<path fill-rule="evenodd" clip-rule="evenodd" fill="#7280B4" d="M90,65c1.453,0.547,5.168-1.168,5,1
		C93.547,65.453,89.832,67.168,90,65z"/>
	<path fill-rule="evenodd" clip-rule="evenodd" fill="#D3DEEF" d="M103,75c1.496,0.17,3.69-0.357,4,1c-4.667,0-9.333,0-14,0
		c0-0.333,0-0.667,0-1C96.333,75,99.667,75,103,75z"/>
	<path fill-rule="evenodd" clip-rule="evenodd" fill="#7280B4" d="M3,77c-0.17,1.496,0.357,3.69-1,4C2.17,79.504,1.643,77.31,3,77z"
		/>
	<path fill-rule="evenodd" clip-rule="evenodd" fill="#47508F" d="M103,82c1.177,0.157,2.839-0.172,3,1c-1.496-0.17-3.69,0.357-4-1
		C102.333,82,102.667,82,103,82z"/>
	<path fill-rule="evenodd" clip-rule="evenodd" fill="#1C174A" d="M110,84c1.003-0.003,1.19,0.81,2,1
		C111.566,88.401,104.892,83.288,110,84z"/>
	<path fill-rule="evenodd" clip-rule="evenodd" fill="#7280B4" d="M2,83c-0.609,2.391,1.255,7.255-1,8c0-1,0-2,0-3
		C1.547,86.547-0.168,82.832,2,83z"/>
	<path fill-rule="evenodd" clip-rule="evenodd" fill="#9AA9CF" d="M2,104c0,1.333,0,2.667,0,4c-1.481-0.186-0.917-2.417-1-4
		C1.333,104,1.667,104,2,104z"/>
	<path fill-rule="evenodd" clip-rule="evenodd" fill="#9AA9CF" d="M60,106c-0.17,1.496,0.357,3.69-1,4
		C59.17,108.504,58.643,106.31,60,106z"/>
	<path fill-rule="evenodd" clip-rule="evenodd" fill="#7280B4" d="M59,119c1.481,0.186,0.917,2.417,1,4
		C58.519,122.814,59.083,120.583,59,119z"/>
	<path fill-rule="evenodd" clip-rule="evenodd" fill="#47508F" d="M78,117c0.329,2.338,1.202,4.132,2,6c0.903,1.763,2.237,3.097,4,4
		c1.003-0.003,1.19,0.81,2,1c-0.168,1.165-1.581,1.086-3,1c0.195-1.919-2.089-1.168-3-2c-0.805-0.735-0.356-2.034-1-3
		c-0.531-0.796-1.486-0.909-2-2c-1.445-3.068-0.925-6.8-1-11c0.239-1.427,1.646-1.687,2-3c0.333,0,0.667,0,1,0
		c0.409,2.409-1.826,2.174-1,5C76.378,112.284,76.378,117.716,78,117z"/>
	<path fill-rule="evenodd" clip-rule="evenodd" fill="#7280B4" d="M85,190c1.496,0.17,3.69-0.357,4,1c-1.333,0-2.667,0-4,0
		C85,190.667,85,190.333,85,190z"/>
	<path fill-rule="evenodd" clip-rule="evenodd" fill="#7280B4" d="M104,191c-0.136-2.864-6.864,0.864-7-2
		c5.006-0.673,7.74,0.926,12,1C109.169,192.169,105.453,190.453,104,191z"/>
	<path fill-rule="evenodd" clip-rule="evenodd" fill="#9AA9CF" d="M70,101c2.394-1.492,3.061-3.972,5-6c3.604-3.77,8.92-6.75,14-8
		c1.256-0.309,2.724,0.225,4,0c1.297-0.229,1.393-0.871,3-1c1.561-0.125,0.966,1.264,2,0c0.984-1.203,4.355,0.966,5,1
		c1.026,0.054,0.604,0.853,1,1c0.88,0.328,2.1-0.272,3,0c0.35,0.106,1.533,1.766,2,2c1.396,0.699,3.496,1.012,5,2
		c0.442,0.291,0.535,1.651,1,2c0.963,0.722,2.212,0.17,3,1c0.312,0.328-0.192,1.572,0,2c0.14,0.309,1.751,0.654,2,1
		c0.224,0.312,0.985,1.725,1,2c0.06,1.131,0.711,0.475,1,1c0.743,1.35,0.428,2.603,1,4c0.046,0.112,0.894-0.087,1,0
		c0.275,0.226-0.143,1.645,0,2c1.562,3.904,1.067,13.33,0,16c-0.658,1.646-1.253,5.556-2,7c-0.068,0.132-0.875-0.102-1,0
		c-0.332,0.271,0.267,1.646,0,2c-1.113,1.485-2.229,1.747-3,3c-0.686,1.114-1.169,1.15-2,2c-2.301,2.353-4.988,3.924-8,5
		c-1.094,0.391-2.334,1.594-3,0c0-0.333,0-0.667,0-1c0.333,0,0.667,0,1,0c0.885-0.183,1.338-0.578,2-1c0.723-0.461,1.387-0.47,2-1
		c0.725-0.627,1.138-2.591,2-3c0.942-0.446,0.819,0.952,1,1c1.969,0.518,6.96-7.244,7-8c0.097-1.838,1.924-2.559,2-4
		c0.051-0.958,0.906-0.69,1-1c0.452-1.499-0.227-3.443,0-5c0.219-1.5,1.06-1.786,1-4c-0.032-1.183-0.805-1.523-1-3
		c-0.259-1.961,0.178-3.037-1-4c-0.085-0.07-1.01-3.038-1-3c-0.547-2.188-1.014-1.685-2-3c-0.659-0.878-0.389-2.22-1-3
		c-0.36-0.46-1.583-0.552-2-1c-0.592-0.635-0.972-2.946-2-3c-1.133-0.06-0.473-0.707-1-1c-0.985-0.547-1.915-0.375-3-1
		c-2.257-1.3-3.191-2.557-5-3c-3.38-0.828-9.988-0.99-14,0c-1.292,0.319-1.293,1.136-2,2c-0.243,0.297-1.635-0.183-2,0
		c-1.772,0.888-3.7,0.778-4,3c1.758,0.575,5.875-1.208,6,1c-7.568,0.099-10.371,4.963-15,8c-3.417-0.75-1.271,4.062-5,3
		c0.054,1.721-0.77,2.563-2,3C67.635,106.636,67.709,102.709,70,101z"/>
</g>
</svg>
