<?xml version="1.0" encoding="utf-8"?>
<!-- Generator: Adobe Illustrator 15.0.0, SVG Export Plug-In . SVG Version: 6.00 Build 0)  -->
<!DOCTYPE svg PUBLIC "-//W3C//DTD SVG 1.1//EN" "http://www.w3.org/Graphics/SVG/1.1/DTD/svg11.dtd">
<svg version="1.1" id="Calque_1" xmlns="http://www.w3.org/2000/svg" xmlns:xlink="http://www.w3.org/1999/xlink" x="0px" y="0px"
	 width="61px" height="71px" viewBox="39.365 36.365 61 71" enable-background="new 39.365 36.365 61 71" xml:space="preserve">
<g>
	<g>
		<path fill="#83A4B7" d="M53.001,60.731c5.833,0,11.667,0,17.501,0c0,1.667,0,3.333,0,5c-5.834,0-11.667,0-17.501,0
			C53.001,64.065,53.001,62.398,53.001,60.731z"/>
		<path fill="#83A4B7" d="M85.503,70.732c0,1.667,0,3.334,0,5c-10.834,0-21.668,0-32.502,0c0-1.666,0-3.333,0-5
			C63.835,70.732,74.669,70.732,85.503,70.732z"/>
		<path fill="#83A4B7" d="M73.002,80.733c0,1.666,0,3.333,0,5c-6.667,0-13.334,0-20.001,0c0-1.667,0-3.334,0-5
			C59.668,80.733,66.335,80.733,73.002,80.733z"/>
		<path fill="#83A4B7" d="M73.002,80.733c0.827,0.539,0.827,4.461,0,5C73.002,84.066,73.002,82.399,73.002,80.733z"/>
		<path fill="#83A4B7" d="M78.002,90.733c0,1.667,0,3.334,0,5.001c-8.333,0-16.667,0-25.001,0c0-1.667,0-3.334,0-5.001
			C61.334,90.733,69.668,90.733,78.002,90.733z"/>
		<path fill="#83A4B7" d="M77.502,41.73c-0.463-7.619-13.538-7.619-14,0c-1.145,0.855-0.184,3.816-0.5,5.5
			c-2.347,2.986-7.912,2.756-7.5,8.5c10,0,20.001,0,30.002,0c0.447-5.781-5.174-5.494-7.501-8.5
			C77.686,45.547,78.646,42.586,77.502,41.73z M48.5,46.731c2.237-2.763,11.665,1.664,10-5c-2.935-1.859-12.144-1.532-14.5,0.5
			c-1.66,18.379-1.66,43.625,0,62.003c6.905,2.624,16.799,1.5,26.001,1.5c9.616,0,19.373,0.727,27.001-1
			c1.656-18.737,1.656-44.266,0-63.003c-3.148-1.076-11.535-2.052-14.501,0c-1.383,6.55,7.913,2.421,10.501,5
			c-0.649,17.684,1.312,37.979-1,54.003c-14.188-0.646-30.973,1.305-43.502-1C48.5,82.066,48.5,64.398,48.5,46.731z M53.001,65.732
			c5.833,0,11.667,0,17.501,0c0-1.667,0-3.333,0-5c-5.834,0-11.667,0-17.501,0C53.001,62.398,53.001,64.065,53.001,65.732z
			 M53.001,70.732c0,1.667,0,3.334,0,5c10.834,0,21.668,0,32.502,0c0-1.666,0-3.333,0-5C74.669,70.732,63.835,70.732,53.001,70.732z
			 M73.002,85.733c0.827-0.539,0.827-4.461,0-5c-6.667,0-13.334,0-20.001,0c0,1.666,0,3.333,0,5
			C59.668,85.733,66.335,85.733,73.002,85.733z M53.001,90.733c0,1.667,0,3.334,0,5.001c8.333,0,16.667,0,25.001,0
			c0-1.667,0-3.334,0-5.001C69.668,90.733,61.334,90.733,53.001,90.733z"/>
		<path fill="#83A4B7" d="M72.502,44.231c-0.656,0.176-0.786,0.88-1.5,1C64.17,44.488,73.297,36.427,72.502,44.231z"/>
		<path fill="#83A4B7" d="M63.001,47.231c0.316-1.685-0.645-4.646,0.5-5.5C63.185,43.414,64.146,46.375,63.001,47.231z"/>
		<path fill="#83A4B7" d="M77.502,41.73c1.146,0.855,0.185,3.816,0.5,5.5C76.857,46.375,77.818,43.414,77.502,41.73z"/>
		<path fill="#83A4B7" d="M48.5,46.731c0,17.667,0,35.335,0,53.003C47.667,83.232,47.667,63.232,48.5,46.731z"/>
		<path fill="#83A4B7" d="M63.501,41.73c0.463-7.619,13.538-7.619,14,0c0.316,1.684-0.645,4.645,0.5,5.5
			c2.327,3.006,7.948,2.719,7.501,8.5c-10.001,0-20.001,0-30.002,0c-0.411-5.745,5.154-5.515,7.5-8.5
			C64.146,46.375,63.185,43.414,63.501,41.73z M71.002,45.231c0.714-0.12,0.844-0.824,1.5-1
			C73.297,36.427,64.17,44.488,71.002,45.231z"/>
		<path fill="#83A4B7" d="M48.5,99.734c12.53,2.305,29.314,0.354,43.502,1c2.312-16.023,0.351-36.319,1-54.003
			c-2.588-2.579-11.884,1.549-10.501-5c2.966-2.052,11.353-1.076,14.501,0c1.656,18.738,1.656,44.266,0,63.003
			c-7.629,1.727-17.386,1-27.001,1c-9.202,0-19.096,1.124-26.001-1.5c-1.66-18.379-1.66-43.625,0-62.003
			c2.356-2.032,11.566-2.359,14.5-0.5c1.664,6.664-7.763,2.237-10,5C47.667,63.232,47.667,83.232,48.5,99.734z"/>
	</g>
</g>
</svg>
