<?xml version="1.0" encoding="utf-8"?>
<!-- Generator: Adobe Illustrator 15.0.0, SVG Export Plug-In . SVG Version: 6.00 Build 0)  -->
<!DOCTYPE svg PUBLIC "-//W3C//DTD SVG 1.1//EN" "http://www.w3.org/Graphics/SVG/1.1/DTD/svg11.dtd">
<svg version="1.1" id="Calque_1" xmlns="http://www.w3.org/2000/svg" xmlns:xlink="http://www.w3.org/1999/xlink" x="0px" y="0px"
	 width="70px" height="66px" viewBox="386.445 265.14 70 66" enable-background="new 386.445 265.14 70 66" xml:space="preserve">
<g>
	<g>
		<path fill="#E2E6E8" d="M425.504,306.283c2.415,0.264,8.556-0.572,8.5,0.499C431.329,306.457,427.347,307.439,425.504,306.283z"/>
		<path fill="#E2E6E8" d="M410.503,307.282c-2.25-1.946,6.467-0.604,9-0.999C417.654,307.769,412.35,305.798,410.503,307.282z"/>
		<path fill="#768A93" d="M454.005,279.282c-17.334,4.333-35.699,7.636-54.002,11c17.015,1.485,37.482-0.481,54.502,1
			c0.828,11.035,0.828,25.465,0,36.501c-20.191,0.83-43.812,0.83-64.004,0c0.364-9.205-2.164-24.273-0.5-33.502
			c0.359-1.992,0.328-3.013,2-4c-1.312-2.521-1.787-5.881-2-9.5c11.656-3.376,30.017-6.485,45.003-9.5
			c4.67-0.938,11.806-3.857,15.001-3C454.512,269.492,453.289,275.918,454.005,279.282z M425.504,306.283
			c-1.315-2.687-1.714-6.288-3.5-8.5c-0.468,3.2-2.416,4.918-2.5,8.5c-2.534,0.395-11.25-0.947-9,0.999
			c2.135,1.865,5.379,2.621,6.5,5.5c-0.662,2.35-2.725,5.931-2,8.001c2.554-1.612,4.34-3.994,7.501-5.001
			c2.647,1.52,4.705,3.628,7.5,5.001c-0.719-3.281-2.182-5.818-3-9.001c2.658-1.341,4.966-3.034,7-5
			C434.059,305.711,427.919,306.547,425.504,306.283z"/>
		<path fill="#79989B" d="M450.005,268.281c-3.195-0.857-10.331,2.062-15.001,3c-14.986,3.015-33.347,6.125-45.003,9.5
			c0.213,3.62,0.688,6.979,2,9.5c-1.672,0.987-1.641,2.008-2,4c-1.664,9.229,0.864,24.297,0.5,33.502
			c20.191,0.83,43.812,0.83,64.004,0c0.827-11.036,0.827-25.466,0-36.502c-17.021-1.48-37.488,0.486-54.502-1
			c18.303-3.364,36.668-6.667,54.002-11C453.289,275.918,454.512,269.492,450.005,268.281z"/>
		<path fill="#FFFFFF" d="M419.503,306.283c0.084-3.582,2.033-5.301,2.5-8.5c1.786,2.212,2.185,5.814,3.5,8.5
			c1.844,1.155,5.825,0.174,8.5,0.499c-2.034,1.966-4.342,3.659-7,5c0.818,3.183,2.281,5.72,3,9.001
			c-2.796-1.373-4.853-3.481-7.5-5.001c-3.161,1.007-4.947,3.389-7.501,5.001c-0.725-2.07,1.338-5.651,2-8.001
			c-1.121-2.879-4.365-3.635-6.5-5.5C412.35,305.798,417.654,307.769,419.503,306.283z"/>
	</g>
</g>
</svg>
