<?xml version="1.0" encoding="utf-8"?>
<!-- Generator: Adobe Illustrator 15.0.0, SVG Export Plug-In . SVG Version: 6.00 Build 0)  -->
<!DOCTYPE svg PUBLIC "-//W3C//DTD SVG 1.1//EN" "http://www.w3.org/Graphics/SVG/1.1/DTD/svg11.dtd">
<svg version="1.1" id="Calque_1" xmlns="http://www.w3.org/2000/svg" xmlns:xlink="http://www.w3.org/1999/xlink" x="0px" y="0px"
	 width="60px" height="55px" viewBox="0 0 60 55" enable-background="new 0 0 60 55" xml:space="preserve">
<g>
	<path fill-rule="evenodd" clip-rule="evenodd" fill="#FFFFFF" d="M48.003,3c0,16.667,0,33.335,0,50.002c3.334,0,6.667,0,10.001,0
		c0-16.667,0-33.335,0-50.002C54.67,3,51.337,3,48.003,3z M33.002,18.001c0,11.667,0,23.334,0,35.001c3.334,0,6.668,0,10.001,0
		c0-11.667,0-23.334,0-35.001C39.67,18.001,36.336,18.001,33.002,18.001z M18.001,53.003c3.333,0,6.667,0,10,0
		c0-6.667,0-13.334,0-20.001c-3.333,0-6.667,0-10,0C18.001,39.669,18.001,46.336,18.001,53.003z M3.001,53.003c3.333,0,6.667,0,10,0
		c0-3.333,0-6.667,0-10c-3.333,0-6.667,0-10,0C3.001,46.336,3.001,49.67,3.001,53.003z"/>
	<path fill-rule="evenodd" clip-rule="evenodd" fill="#FDA128" d="M58.004,3c0,16.667,0,33.335,0,50.002c-3.334,0-6.667,0-10.001,0
		c0-16.667,0-33.335,0-50.002C51.337,3,54.67,3,58.004,3z"/>
	<path fill-rule="evenodd" clip-rule="evenodd" fill="#FDA128" d="M43.003,18.001c0,11.667,0,23.334,0,35.001
		c-3.333,0-6.667,0-10.001,0c0-11.667,0-23.334,0-35.001C36.336,18.001,39.67,18.001,43.003,18.001z"/>
	<path fill-rule="evenodd" clip-rule="evenodd" fill="#FDA128" d="M18.001,33.002c3.333,0,6.667,0,10,0c0,6.667,0,13.334,0,20.001
		c-3.333,0-6.667,0-10,0C18.001,46.336,18.001,39.669,18.001,33.002z"/>
	<path fill-rule="evenodd" clip-rule="evenodd" fill="#FDA128" d="M3.001,43.003c3.333,0,6.667,0,10,0c0,3.333,0,6.667,0,10
		c-3.333,0-6.667,0-10,0C3.001,49.67,3.001,46.336,3.001,43.003z"/>
</g>
</svg>
