<?xml version="1.0" encoding="utf-8"?>
<!-- Generator: Adobe Illustrator 15.0.0, SVG Export Plug-In . SVG Version: 6.00 Build 0)  -->
<!DOCTYPE svg PUBLIC "-//W3C//DTD SVG 1.1//EN" "http://www.w3.org/Graphics/SVG/1.1/DTD/svg11.dtd">
<svg version="1.1" id="Calque_1" xmlns="http://www.w3.org/2000/svg" xmlns:xlink="http://www.w3.org/1999/xlink" x="0px" y="0px"
	 width="76.666px" height="66.001px" viewBox="0 0 76.666 66.001" enable-background="new 0 0 76.666 66.001" xml:space="preserve">
<g>
	<g>
		<path fill="#FFFFFF" stroke="#5EA5A8" stroke-width="4" stroke-miterlimit="10" d="M45.503,57.504c0-2.333,0-4.667,0-7
			c-4.667,0-9.334,0-14.001,0c0,2.5,0,5,0,7.5c-1.689,1.644-4.871,1.797-5.5,4.501c7.542,0.719,17.479,0.824,25.001,0
			C50.476,59.531,46.582,59.925,45.503,57.504z M72.504,3.501c-21.846-0.84-47.156-0.822-69.004,0c0,14.668,0,29.336,0,44.003
			c22.188,0.83,47.816,0.83,70.004,0c0-14.335,0-28.669,0-43.003C73.447,3.892,73.354,3.317,72.504,3.501z"/>
	</g>
</g>
<rect x="10.833" y="10.167" fill="#5EA5A8" width="51" height="6.833"/>
<rect x="11" y="20.334" fill="#5EA5A8" width="40.167" height="6.833"/>
<rect x="11.333" y="32.834" fill="#5EA5A8" width="51" height="6.833"/>
</svg>
