<?xml version="1.0" encoding="utf-8"?>
<!-- Generator: Adobe Illustrator 15.0.0, SVG Export Plug-In . SVG Version: 6.00 Build 0)  -->
<!DOCTYPE svg PUBLIC "-//W3C//DTD SVG 1.1//EN" "http://www.w3.org/Graphics/SVG/1.1/DTD/svg11.dtd">
<svg version="1.1" id="Calque_1" xmlns="http://www.w3.org/2000/svg" xmlns:xlink="http://www.w3.org/1999/xlink" x="0px" y="0px"
	 width="73px" height="62px" viewBox="0 0 73 62" enable-background="new 0 0 73 62" xml:space="preserve">
<g>
	<path fill-rule="evenodd" clip-rule="evenodd" fill="#5EA5A8" d="M58.003,20.001c1.025-0.83,5.476-0.83,6.501,0
		C62.337,20.001,60.17,20.001,58.003,20.001z"/>
	<path fill-rule="evenodd" clip-rule="evenodd" fill="#5EA5A8" d="M58.003,20.001c0,2.5,0,5,0,7.5c-0.166,0-0.333,0-0.5,0
		C57.827,25.159,56.85,21.514,58.003,20.001z"/>
	<path fill-rule="evenodd" clip-rule="evenodd" fill="#5EA5A8" d="M58.003,20.001c2.167,0,4.334,0,6.501,0c0,2.5,0,5,0,7.5
		c0,0.167,0,0.333,0,0.5c2.666,0,5.333,0,8,0c0,2,0,4,0,6c-2.509,0.325-6.322-0.655-8,0.5c0,2.5,0,5,0,7.501
		c-2.167,0-4.334,0-6.501,0c0-2.501,0-5.001,0-7.501c0-0.166,0-0.333,0-0.5c-2.667,0-5.333,0-8,0c0-2,0-4,0-6
		c2.509-0.325,6.322,0.655,8-0.5C58.003,25.001,58.003,22.501,58.003,20.001z"/>
	<path fill-rule="evenodd" clip-rule="evenodd" fill="#5EA5A8" d="M64.504,20.001c1.153,1.513,0.176,5.157,0.5,7.5
		c-0.167,0-0.334,0-0.5,0C64.504,25.001,64.504,22.501,64.504,20.001z"/>
	<path fill-rule="evenodd" clip-rule="evenodd" fill="#5EA5A8" d="M50.003,28.002c1.513-1.154,5.157-0.176,7.5-0.5
		c0.167,0,0.334,0,0.5,0C56.325,28.657,52.512,27.677,50.003,28.002z"/>
	<path fill-rule="evenodd" clip-rule="evenodd" fill="#5EA5A8" d="M64.504,27.502c0.166,0,0.333,0,0.5,0
		c2.343,0.324,5.987-0.654,7.5,0.5c-2.667,0-5.334,0-8,0C64.504,27.835,64.504,27.668,64.504,27.502z"/>
	<path fill-rule="evenodd" clip-rule="evenodd" fill="#5EA5A8" d="M50.003,34.002c2.667,0,5.333,0,8,0c0,0.167,0,0.334,0,0.5
		c-0.166,0-0.333,0-0.5,0C55.16,34.179,51.516,35.156,50.003,34.002z"/>
	<path fill-rule="evenodd" clip-rule="evenodd" fill="#5EA5A8" d="M64.504,34.502c1.678-1.155,5.491-0.175,8-0.5
		c-1.513,1.154-5.157,0.177-7.5,0.5C64.837,34.502,64.67,34.502,64.504,34.502z"/>
	<path fill-rule="evenodd" clip-rule="evenodd" fill="#5EA5A8" d="M57.503,34.502c0.167,0,0.334,0,0.5,0c0,2.5,0,5,0,7.501
		C56.85,40.489,57.827,36.845,57.503,34.502z"/>
	<path fill-rule="evenodd" clip-rule="evenodd" fill="#5EA5A8" d="M64.504,34.502c0.166,0,0.333,0,0.5,0
		c-0.324,2.343,0.653,5.987-0.5,7.501C64.504,39.502,64.504,37.002,64.504,34.502z"/>
	<path fill-rule="evenodd" clip-rule="evenodd" fill="#5EA5A8" d="M58.003,42.003c2.167,0,4.334,0,6.501,0
		C63.479,42.832,59.028,42.832,58.003,42.003z"/>
	<path fill-rule="evenodd" clip-rule="evenodd" fill="#5EA5A8" d="M24.501,42.003c0,0.5,0,1,0,1.5
		C16.82,48.988,1.533,46.868,2.5,61.004c20.001,0,40.001,0,60.003,0c0.347-2.848-0.848-4.153-0.501-7.001
		c-5.247-5.586-15.071-6.596-21.501-11c0.237-12.764,7.798-18.204,5.501-33.502c-2.719-11.008-24.284-11.008-27.002,0
		c-0.639,11.555,1.332,19.813,5.5,27.501C24.501,38.669,24.501,40.336,24.501,42.003z M58.003,20.001
		c-1.153,1.513-0.176,5.157-0.5,7.5c-2.343,0.324-5.987-0.654-7.5,0.5c0,2,0,4,0,6c1.513,1.154,5.157,0.177,7.5,0.5
		c0.324,2.343-0.653,5.987,0.5,7.501c1.025,0.829,5.476,0.829,6.501,0c1.153-1.514,0.176-5.158,0.5-7.501
		c2.343-0.323,5.987,0.654,7.5-0.5c0-2,0-4,0-6c-1.513-1.154-5.157-0.176-7.5-0.5c-0.324-2.343,0.653-5.988-0.5-7.5
		C63.479,19.172,59.028,19.172,58.003,20.001z"/>
	<path fill-rule="evenodd" clip-rule="evenodd" fill="#5EA5A8" d="M24.501,37.002c0.828,0.539,0.828,4.461,0,5.001
		C24.501,40.336,24.501,38.669,24.501,37.002z"/>
	<path fill-rule="evenodd" clip-rule="evenodd" fill="#5EA5A8" d="M24.501,37.002c-4.168-7.688-6.14-15.946-5.5-27.501
		c2.718-11.008,24.283-11.008,27.002,0c2.297,15.298-5.264,20.738-5.501,33.502c6.43,4.404,16.254,5.414,21.501,11
		c-0.347,2.848,0.848,4.153,0.501,7.001c-20.002,0-40.002,0-60.003,0C1.533,46.868,16.82,48.988,24.501,43.503c0-0.5,0-1,0-1.5
		C25.329,41.463,25.329,37.541,24.501,37.002z"/>
</g>
</svg>
