<?xml version="1.0" encoding="utf-8"?>
<!-- Generator: Adobe Illustrator 15.0.0, SVG Export Plug-In . SVG Version: 6.00 Build 0)  -->
<!DOCTYPE svg PUBLIC "-//W3C//DTD SVG 1.1//EN" "http://www.w3.org/Graphics/SVG/1.1/DTD/svg11.dtd">
<svg version="1.1" id="Calque_1" xmlns="http://www.w3.org/2000/svg" xmlns:xlink="http://www.w3.org/1999/xlink" x="0px" y="0px"
	 width="71px" height="69px" viewBox="0 0 71 69" enable-background="new 0 0 71 69" xml:space="preserve">
<g>
	<path fill-rule="evenodd" clip-rule="evenodd" fill="#D8D82E" stroke="#FFFFFF" stroke-width="2" stroke-miterlimit="10" d="
		M56.503,19.001c3.334,0,6.667,0,10.001,0c1.59,16.744,3.258,33.411,5,50.002c-23.334,0-46.669,0-70.003,0
		c1.743-16.592,3.41-33.259,5-50.002c3.167,0,6.333,0,9.5,0C14.688-6.276,58.143-7.43,56.503,19.001z M21.501,19.001
		c10,0,20.001,0,30.001,0C53.516-0.676,19.489-0.676,21.501,19.001z M24.001,35.002c-0.519,3.558-5.638,5.426-8.5,3.001
		c-4.657-3.946,2.93-7.639,1-14.001c-1.833,0-3.667,0-5.5,0c-1.42,13.247-2.539,26.796-4,40.002c19.667,0,39.335,0,59.003,0
		c-1.461-13.206-2.58-26.755-4-40.002c-1.834,0-3.667,0-5.501,0c-1.648,6.371,2.821,6.465,2.501,10.5
		c-0.464,5.823-9.53,5.92-10.001,0c-0.351-4.403,4.434-4.231,2.5-10.5c-10,0-20.001,0-30.001,0
		C19.767,30.604,24.659,30.494,24.001,35.002z"/>
	<path fill-rule="evenodd" clip-rule="evenodd" fill="#D8D82E" stroke="#FFFFFF" stroke-width="2" stroke-miterlimit="10" d="
		M16.001,19.001c-3.167,0-6.333,0-9.5,0c-1.59,16.744-3.258,33.411-5,50.002c23.334,0,46.669,0,70.003,0
		c-1.742-16.592-3.41-33.259-5-50.002c-3.334,0-6.667,0-10.001,0C58.143-7.43,14.688-6.276,16.001,19.001z"/>
	<path fill-rule="evenodd" clip-rule="evenodd" fill="#D8D82E" stroke="#FFFFFF" stroke-width="2" stroke-miterlimit="10" d="
		M21.501,24.002c10,0,20.001,0,30.001,0c1.934,6.27-2.851,6.098-2.5,10.5c0.471,5.92,9.537,5.823,10.001,0
		c0.32-4.035-4.149-4.13-2.501-10.5c1.834,0,3.667,0,5.501,0c1.42,13.247,2.539,26.796,4,40.002c-19.668,0-39.335,0-59.003,0
		c1.461-13.206,2.58-26.755,4-40.002c1.833,0,3.667,0,5.5,0c1.93,6.362-5.658,10.055-1,14.001c2.863,2.425,7.982,0.557,8.5-3.001
		C24.659,30.494,19.767,30.604,21.501,24.002z"/>
	<path fill-rule="evenodd" clip-rule="evenodd" fill="#D8D82E" stroke="#FFFFFF" stroke-width="2" stroke-miterlimit="10" d="
		M51.503,19.001c-10,0-20.001,0-30.001,0C19.489-0.676,53.516-0.676,51.503,19.001z"/>
</g>
</svg>
